# Blender v2.80 (sub 75) OBJ File: 'GDS2_Flooring-2.blend'
# www.blender.org
mtllib GDS2_Flooring-2.mtl
o GDS2_Flooring-2
v 3.199995 0.049999 3.200000
v 1.599995 -0.050001 3.200000
v 3.199995 -0.050001 3.200000
v 1.599995 0.049999 3.200000
v 1.399994 -0.050001 3.200000
v 1.399994 0.049999 3.200000
v -1.400005 -0.050001 3.200000
v -1.400005 0.049999 3.200000
v -1.600005 -0.050001 3.200000
v -1.600005 0.049999 3.200000
v -3.200006 -0.050001 3.200000
v -3.200006 0.049999 3.200000
v 3.199995 -0.049999 -3.200000
v 1.599995 -0.049999 -3.200000
v 3.199995 0.050001 -3.200000
v 1.399994 -0.049999 -3.200000
v 1.599995 0.050001 -3.200000
v -1.400005 -0.049999 -3.200000
v 1.399994 0.050001 -3.200000
v -1.600005 -0.049999 -3.200000
v -1.400005 0.050001 -3.200000
v -3.200006 -0.049999 -3.200000
v -1.600005 0.050001 -3.200000
v -3.200006 0.050001 -3.200000
v 3.199995 -0.050000 1.500000
v 3.199995 0.049999 3.200000
v 3.199995 -0.050001 3.200000
v 3.199995 0.050000 1.500000
v 3.199995 -0.050000 1.300000
v 3.199995 0.050000 1.300000
v 3.199995 -0.050000 -1.500000
v 3.199995 0.050000 -1.500000
v 3.199995 -0.050000 -1.700000
v 3.199995 0.050000 -1.700000
v 3.199995 -0.049999 -3.200000
v 3.199995 0.050001 -3.200000
v -3.200006 -0.050001 3.200000
v -3.200006 0.049999 3.200000
v -3.200006 -0.050000 1.500000
v -3.200006 0.050000 1.500000
v -3.200006 -0.050000 1.300000
v -3.200006 0.050000 1.300000
v -3.200006 -0.050000 -1.500000
v -3.200006 0.050000 -1.500000
v -3.200006 -0.050000 -1.700000
v -3.200006 0.050000 -1.700000
v -3.200006 -0.049999 -3.200000
v -3.200006 0.050001 -3.200000
v 1.599995 -0.050001 3.200000
v 3.199995 -0.050000 1.500000
v 3.199995 -0.050001 3.200000
v 1.599995 -0.050000 1.500000
v 3.199995 -0.050000 1.300000
v 1.599995 -0.050000 -1.700000
v 3.199995 -0.049999 -3.200000
v 3.199995 -0.050000 -1.700000
v 3.199995 -0.050000 -1.500000
v 1.599995 -0.049999 -3.200000
v 1.399994 -0.050001 3.200000
v 1.399994 -0.050000 1.300000
v 1.399994 -0.050000 -1.500000
v 1.399994 -0.049999 -3.200000
v -1.400005 -0.050001 3.200000
v -1.400005 -0.050000 1.300000
v -1.400005 -0.050000 -1.500000
v -1.400005 -0.049999 -3.200000
v -1.600005 -0.050001 3.200000
v -1.600005 -0.050000 1.500000
v -1.600005 -0.050000 -1.700000
v -1.600005 -0.049999 -3.200000
v -3.200006 -0.050001 3.200000
v -3.200006 -0.050000 1.500000
v -3.200006 -0.050000 1.300000
v -3.200006 -0.050000 -1.500000
v -3.200006 -0.050000 -1.700000
v -3.200006 -0.049999 -3.200000
v 3.199995 0.049999 3.200000
v 3.199995 0.050000 1.500000
v 1.599995 0.049999 3.200000
v 3.199995 0.050000 1.300000
v 1.599995 0.050000 1.500000
v 3.199995 0.050000 -1.700000
v 3.199995 0.050001 -3.200000
v 1.599995 0.050000 -1.700000
v 3.199995 0.050000 -1.500000
v 1.599995 0.050001 -3.200000
v 1.399994 0.049999 3.200000
v 1.399994 0.050000 1.300000
v 1.399994 0.050000 -1.500000
v 1.399994 0.050001 -3.200000
v -1.400005 0.049999 3.200000
v -1.400005 0.050000 1.300000
v -1.400005 0.050000 -1.500000
v -1.400005 0.050001 -3.200000
v -1.600005 0.049999 3.200000
v -1.600005 0.050000 1.500000
v -1.600005 0.050000 -1.700000
v -1.600005 0.050001 -3.200000
v -3.200006 0.049999 3.200000
v -3.200006 0.050000 1.500000
v -3.200006 0.050000 1.300000
v -3.200006 0.050000 -1.500000
v -3.200006 0.050000 -1.700000
v -3.200006 0.050001 -3.200000
vt 0.982422 0.500000
vt 0.982422 0.500000
vt 0.982422 0.500000
vt 0.958984 0.500000
vt 0.958984 0.500000
vt 0.958984 0.500000
vt 0.982422 0.500000
vt 0.982422 0.500000
vt 0.982422 0.500000
vt 0.982422 0.500000
vt 0.958984 0.500000
vt 0.958984 0.500000
vt 0.958984 0.500000
vt 0.958984 0.500000
vt 0.982422 0.500000
vt 0.982422 0.500000
vt 0.982422 0.500000
vt 0.982422 0.500000
vt 0.958984 0.500000
vt 0.982422 0.500000
vt 0.982422 0.500000
vt 0.982422 0.500000
vt 0.982422 0.500000
vt 0.958984 0.500000
vt 0.958984 0.500000
vt 0.958984 0.500000
vt 0.982422 0.500000
vt 0.982422 0.500000
vt 0.982422 0.500000
vt 0.982422 0.500000
vt 0.958984 0.500000
vt 0.958984 0.500000
vt 0.958984 0.500000
vt 0.958984 0.500000
vt 0.982422 0.500000
vt 0.982422 0.500000
vt 0.982422 0.500000
vt 0.982422 0.500000
vt 0.958984 0.500000
vt 0.982422 0.500000
vt 0.982422 0.500000
vt 0.982422 0.500000
vt 0.982422 0.500000
vt 0.982422 0.500000
vt 0.958984 0.500000
vt 0.958984 0.500000
vt 0.958984 0.500000
vt 0.958984 0.500000
vt 0.982422 0.500000
vt 0.982422 0.500000
vt 0.982422 0.500000
vt 0.982422 0.500000
vt 0.958984 0.500000
vt 0.958984 0.500000
vt 0.958984 0.500000
vt 0.958984 0.500000
vt 0.982422 0.500000
vt 0.982422 0.500000
vt 0.982422 0.500000
vt 0.982422 0.500000
vt 0.982422 0.500000
vt 0.982422 0.500000
vt 0.982422 0.500000
vt 0.982422 0.500000
vt 0.958984 0.500000
vt 0.958984 0.500000
vt 0.958984 0.500000
vt 0.958984 0.500000
vt 0.982422 0.500000
vt 0.982422 0.500000
vt 0.982422 0.500000
vt 0.982422 0.500000
vt 0.958984 0.500000
vt 0.958984 0.500000
vt 0.958984 0.500000
vt 0.958984 0.500000
vt 0.982422 0.500000
vt 0.982422 0.500000
vt 0.982422 0.500000
vt 0.982422 0.500000
vt 0.982422 0.500000
vt 0.982422 0.500000
vt 0.982422 0.500000
vt 0.958984 0.500000
vt 0.958984 0.500000
vt 0.958984 0.500000
vt 0.982422 0.500000
vt 0.982422 0.500000
vt 0.982422 0.500000
vt 0.982422 0.500000
vt 0.958984 0.500000
vt 0.958984 0.500000
vt 0.958984 0.500000
vt 0.982422 0.500000
vt 0.958984 0.500000
vt 0.958984 0.500000
vt 0.958984 0.500000
vt 0.982422 0.500000
vt 0.982422 0.500000
vt 0.982422 0.500000
vt 0.958984 0.500000
vt 0.958984 0.500000
vt 0.982422 0.500000
vt 0.958984 0.500000
vt 0.982422 0.500000
vt 0.982422 0.500000
vt 0.982422 0.500000
vt 0.982422 0.500000
vt 0.982422 0.500000
vt 0.982422 0.500000
vt 0.958984 0.500000
vt 0.958984 0.500000
vt 0.958984 0.500000
vt 0.958984 0.500000
vt 0.958984 0.500000
vt 0.958984 0.500000
vt 0.958984 0.500000
vt 0.958984 0.500000
vt 0.982422 0.500000
vt 0.982422 0.500000
vt 0.982422 0.500000
vt 0.958984 0.500000
vt 0.982422 0.500000
vt 0.982422 0.500000
vt 0.958984 0.500000
vt 0.958984 0.500000
vt 0.982422 0.500000
vt 0.982422 0.500000
vt 0.982422 0.500000
vt 0.982422 0.500000
vt 0.958984 0.500000
vt 0.982422 0.500000
vt 0.982422 0.500000
vt 0.982422 0.500000
vt 0.982422 0.500000
vt 0.958984 0.500000
vt 0.958984 0.500000
vt 0.958984 0.500000
vt 0.982422 0.500000
vt 0.982422 0.500000
vt 0.982422 0.500000
vt 0.982422 0.500000
vt 0.958984 0.500000
vt 0.958984 0.500000
vt 0.958984 0.500000
vt 0.982422 0.500000
vt 0.958984 0.500000
vt 0.958984 0.500000
vt 0.958984 0.500000
vt 0.982422 0.500000
vt 0.982422 0.500000
vt 0.982422 0.500000
vt 0.958984 0.500000
vt 0.958984 0.500000
vt 0.982422 0.500000
vt 0.958984 0.500000
vt 0.982422 0.500000
vt 0.982422 0.500000
vt 0.982422 0.500000
vt 0.982422 0.500000
vt 0.982422 0.500000
vt 0.982422 0.500000
vt 0.958984 0.500000
vt 0.958984 0.500000
vt 0.958984 0.500000
vt 0.958984 0.500000
vt 0.958984 0.500000
vt 0.958984 0.500000
vt 0.958984 0.500000
vt 0.958984 0.500000
vt 0.982422 0.500000
vt 0.982422 0.500000
vt 0.982422 0.500000
vt 0.958984 0.500000
vt 0.982422 0.500000
vt 0.982422 0.500000
vt 0.958984 0.500000
vt 0.958984 0.500000
vt 0.982422 0.500000
vt 0.982422 0.500000
vt 0.982422 0.500000
vt 0.982422 0.500000
vt 0.958984 0.500000
vt 0.982422 0.500000
vn 0.0000 0.0000 1.0000
vn 0.0000 0.0000 -1.0000
vn 1.0000 0.0000 0.0000
vn -1.0000 0.0000 0.0000
vn 0.0000 -1.0000 -0.0000
vn 0.0000 1.0000 0.0000
usemtl palette
s 1
f 1/1/1 2/2/1 3/3/1
f 4/4/1 5/5/1 2/6/1
f 4/7/1 2/2/1 1/1/1
f 6/8/1 7/9/1 5/10/1
f 6/11/1 5/5/1 4/4/1
f 8/12/1 9/13/1 7/14/1
f 8/15/1 7/9/1 6/8/1
f 10/16/1 11/17/1 9/18/1
f 10/19/1 9/13/1 8/12/1
f 12/20/1 11/17/1 10/16/1
f 13/21/2 14/22/2 15/23/2
f 14/24/2 16/25/2 17/26/2
f 15/23/2 14/22/2 17/27/2
f 16/28/2 18/29/2 19/30/2
f 17/26/2 16/25/2 19/31/2
f 18/32/2 20/33/2 21/34/2
f 19/30/2 18/29/2 21/35/2
f 20/36/2 22/37/2 23/38/2
f 21/34/2 20/33/2 23/39/2
f 23/38/2 22/37/2 24/40/2
f 25/41/3 26/42/3 27/43/3
f 28/44/3 26/42/3 25/41/3
f 29/45/3 28/46/3 25/47/3
f 30/48/3 28/46/3 29/45/3
f 31/49/3 30/50/3 29/51/3
f 32/52/3 30/50/3 31/49/3
f 33/53/3 32/54/3 31/55/3
f 34/56/3 32/54/3 33/53/3
f 35/57/3 34/58/3 33/59/3
f 36/60/3 34/58/3 35/57/3
f 37/61/4 38/62/4 39/63/4
f 39/63/4 38/62/4 40/64/4
f 39/65/4 40/66/4 41/67/4
f 41/67/4 40/66/4 42/68/4
f 41/69/4 42/70/4 43/71/4
f 43/71/4 42/70/4 44/72/4
f 43/73/4 44/74/4 45/75/4
f 45/75/4 44/74/4 46/76/4
f 45/77/4 46/78/4 47/79/4
f 47/79/4 46/78/4 48/80/4
f 49/81/5 50/82/5 51/83/5
f 52/84/5 53/85/5 50/86/5
f 52/87/5 50/82/5 49/81/5
f 54/88/5 55/89/5 56/90/5
f 54/91/5 56/92/5 57/93/5
f 58/94/5 55/89/5 54/88/5
f 59/95/5 52/84/5 49/96/5
f 60/97/5 53/85/5 52/84/5
f 60/97/5 52/84/5 59/95/5
f 60/98/5 57/99/5 53/100/5
f 61/101/5 58/102/5 54/91/5
f 61/103/5 57/99/5 60/98/5
f 61/101/5 54/91/5 57/93/5
f 62/104/5 58/102/5 61/101/5
f 63/105/5 60/98/5 59/106/5
f 63/105/5 61/103/5 60/98/5
f 63/105/5 62/107/5 61/103/5
f 64/108/5 62/107/5 63/105/5
f 65/109/5 62/107/5 64/108/5
f 66/110/5 62/107/5 65/109/5
f 67/111/5 64/112/5 63/113/5
f 68/114/5 64/112/5 67/111/5
f 69/115/5 66/116/5 65/117/5
f 70/118/5 66/116/5 69/115/5
f 71/119/5 68/120/5 67/121/5
f 72/122/5 64/112/5 68/114/5
f 72/123/5 68/120/5 71/119/5
f 73/124/5 65/109/5 64/108/5
f 73/125/5 64/112/5 72/122/5
f 74/126/5 69/115/5 65/117/5
f 74/127/5 65/109/5 73/124/5
f 75/128/5 70/129/5 69/130/5
f 75/131/5 69/115/5 74/126/5
f 76/132/5 70/129/5 75/128/5
f 77/133/6 78/134/6 79/135/6
f 78/136/6 80/137/6 81/138/6
f 79/135/6 78/134/6 81/139/6
f 82/140/6 83/141/6 84/142/6
f 85/143/6 82/144/6 84/145/6
f 84/142/6 83/141/6 86/146/6
f 79/147/6 81/138/6 87/148/6
f 81/138/6 80/137/6 88/149/6
f 87/148/6 81/138/6 88/149/6
f 80/150/6 85/151/6 88/152/6
f 84/145/6 86/153/6 89/154/6
f 88/152/6 85/151/6 89/155/6
f 85/143/6 84/145/6 89/154/6
f 89/154/6 86/153/6 90/156/6
f 87/157/6 88/152/6 91/158/6
f 88/152/6 89/155/6 91/158/6
f 89/155/6 90/159/6 91/158/6
f 91/158/6 90/159/6 92/160/6
f 92/160/6 90/159/6 93/161/6
f 93/161/6 90/159/6 94/162/6
f 91/163/6 92/164/6 95/165/6
f 95/165/6 92/164/6 96/166/6
f 93/167/6 94/168/6 97/169/6
f 97/169/6 94/168/6 98/170/6
f 95/171/6 96/172/6 99/173/6
f 96/166/6 92/164/6 100/174/6
f 99/173/6 96/172/6 100/175/6
f 92/160/6 93/161/6 101/176/6
f 100/174/6 92/164/6 101/177/6
f 93/167/6 97/169/6 102/178/6
f 101/176/6 93/161/6 102/179/6
f 97/180/6 98/181/6 103/182/6
f 102/178/6 97/169/6 103/183/6
f 103/182/6 98/181/6 104/184/6
