# Blender v2.80 (sub 75) OBJ File: 'GDS2_Lights-1.blend'
# www.blender.org
mtllib GDS2_Lights-1.mtl
o GDS2_Lights-1
v -0.303560 -1.451307 0.150195
v -0.303560 -2.251307 -0.449806
v -0.303560 -2.251307 0.150195
v -0.303560 -1.451306 -0.449805
v -0.203562 -0.551306 0.050195
v -0.203562 -1.451307 -0.349805
v -0.203562 -1.451307 0.050195
v -0.203562 -0.551306 -0.349805
v -0.103561 3.248693 -0.049804
v -0.103561 -0.551306 -0.249806
v -0.103561 -0.551306 -0.049805
v -0.103561 3.348693 0.150196
v -0.103561 3.248693 0.150196
v -0.103561 3.348693 0.050195
v -0.103561 3.348693 -0.049804
v -0.103561 3.448693 0.250195
v -0.103561 3.348693 0.250195
v -0.103561 3.448693 0.150196
v -0.103561 3.448693 0.050195
v -0.103561 3.548694 0.350195
v -0.103561 3.448693 0.350195
v -0.103561 3.548694 0.250195
v -0.103561 3.548694 0.150196
v -0.103561 3.648694 0.450196
v -0.103561 3.548694 0.450196
v -0.103561 3.648694 0.350196
v -0.103561 3.648694 0.250195
v -0.103561 3.748693 0.550195
v -0.103561 3.648694 0.550195
v -0.103561 3.748693 0.450196
v -0.103561 3.748693 0.350196
v -0.103561 3.848693 0.550195
v -0.103561 3.748693 0.650196
v -0.103561 3.848693 0.450196
v -0.103561 3.948693 2.450196
v -0.103561 3.848693 1.850196
v -0.103561 3.848693 2.450196
v -0.103561 3.948693 1.850196
v -0.103561 3.948693 0.650196
v -0.103561 3.948693 0.550195
v -0.103561 3.948693 -0.049804
v -0.103561 4.048693 2.450196
v -0.103561 4.048694 -0.049804
v -0.103561 4.148694 -0.049804
v -0.103561 4.148694 -0.249805
v 0.096439 -0.551306 -0.049805
v 0.096439 -0.551306 -0.249806
v 0.096439 3.248693 -0.049804
v 0.096439 3.248693 0.150196
v 0.096439 3.348693 0.150196
v 0.096439 3.348693 0.050195
v 0.096439 3.348693 -0.049804
v 0.096439 3.448693 0.250195
v 0.096439 3.348693 0.250195
v 0.096439 3.448693 0.150196
v 0.096439 3.448693 0.050195
v 0.096439 3.448693 0.350195
v 0.096439 3.548694 0.350195
v 0.096439 3.548694 0.250195
v 0.096439 3.548694 0.150196
v 0.096439 3.548694 0.450196
v 0.096439 3.648694 0.450196
v 0.096439 3.648694 0.350196
v 0.096439 3.648694 0.250195
v 0.096439 3.648694 0.550195
v 0.096439 3.748693 0.550195
v 0.096439 3.748693 0.450196
v 0.096439 3.748693 0.350196
v 0.096439 3.748693 0.650196
v 0.096439 3.848693 0.550195
v 0.096439 3.848693 0.450196
v 0.096439 3.848693 2.450196
v 0.096439 3.848693 1.850196
v 0.096439 3.948693 2.450196
v 0.096439 3.948693 1.850196
v 0.096439 3.948693 0.650196
v 0.096439 3.948693 0.550195
v 0.096439 3.948693 -0.049804
v 0.096439 4.048693 2.450196
v 0.096439 4.048694 -0.049804
v 0.096439 4.148694 -0.049804
v 0.096439 4.148694 -0.249805
v 0.196440 -1.451307 0.050195
v 0.196440 -1.451307 -0.349805
v 0.196440 -0.551306 0.050195
v 0.196440 -0.551306 -0.349805
v 0.296438 -2.251307 0.150195
v 0.296438 -2.251307 -0.449806
v 0.296438 -1.451307 0.150195
v 0.296438 -1.451306 -0.449805
v 0.096439 3.848693 2.450196
v -0.103561 3.948693 2.450196
v -0.103561 3.848693 2.450196
v 0.096439 3.948693 2.450196
v -0.103561 4.048693 2.450196
v 0.096439 4.048693 2.450196
v 0.096439 3.748693 0.650196
v -0.103561 3.948693 0.650196
v -0.103561 3.748693 0.650196
v 0.096439 3.948693 0.650196
v 0.096439 3.648694 0.550195
v -0.103561 3.748693 0.550195
v -0.103561 3.648694 0.550195
v 0.096439 3.748693 0.550195
v 0.096439 3.548694 0.450196
v -0.103561 3.648694 0.450196
v -0.103561 3.548694 0.450196
v 0.096439 3.648694 0.450196
v 0.096439 3.448693 0.350195
v -0.103561 3.548694 0.350195
v -0.103561 3.448693 0.350195
v 0.096439 3.548694 0.350195
v 0.096439 3.348693 0.250195
v -0.103561 3.448693 0.250195
v -0.103561 3.348693 0.250195
v 0.096439 3.448693 0.250195
v 0.096439 3.248693 0.150196
v -0.103561 3.348693 0.150196
v -0.103561 3.248693 0.150196
v 0.096439 3.348693 0.150196
v 0.296438 -2.251307 0.150195
v -0.303560 -1.451307 0.150195
v -0.303560 -2.251307 0.150195
v 0.296438 -1.451307 0.150195
v 0.196440 -1.451307 0.050195
v -0.203562 -0.551306 0.050195
v -0.203562 -1.451307 0.050195
v 0.196440 -0.551306 0.050195
v 0.096439 -0.551306 -0.049805
v -0.103561 3.248693 -0.049804
v -0.103561 -0.551306 -0.049805
v 0.096439 3.248693 -0.049804
v 0.096439 3.348693 -0.049804
v -0.103561 3.948693 -0.049804
v -0.103561 3.348693 -0.049804
v 0.096439 3.948693 -0.049804
v 0.096439 4.048694 -0.049804
v -0.103561 4.148694 -0.049804
v -0.103561 4.048694 -0.049804
v 0.096439 4.148694 -0.049804
v -0.103561 3.848693 1.850196
v -0.103561 3.948693 1.850196
v 0.096439 3.848693 1.850196
v 0.096439 3.948693 1.850196
v -0.103561 3.848693 0.550195
v -0.103561 3.948693 0.550195
v 0.096439 3.848693 0.550195
v 0.096439 3.948693 0.550195
v -0.103561 3.748693 0.450196
v -0.103561 3.848693 0.450196
v 0.096439 3.748693 0.450196
v 0.096439 3.848693 0.450196
v -0.103561 3.648694 0.350196
v -0.103561 3.748693 0.350196
v 0.096439 3.648694 0.350196
v 0.096439 3.748693 0.350196
v -0.103561 3.548694 0.250195
v -0.103561 3.648694 0.250195
v 0.096439 3.548694 0.250195
v 0.096439 3.648694 0.250195
v -0.103561 3.448693 0.150196
v -0.103561 3.548694 0.150196
v 0.096439 3.448693 0.150196
v 0.096439 3.548694 0.150196
v -0.103561 3.348693 0.050195
v -0.103561 3.448693 0.050195
v 0.096439 3.348693 0.050195
v 0.096439 3.448693 0.050195
v -0.103561 -0.551306 -0.249806
v -0.103561 4.148694 -0.249805
v 0.096439 -0.551306 -0.249806
v 0.096439 4.148694 -0.249805
v -0.203562 -1.451307 -0.349805
v -0.203562 -0.551306 -0.349805
v 0.196440 -1.451307 -0.349805
v 0.196440 -0.551306 -0.349805
v -0.303560 -2.251307 -0.449806
v -0.303560 -1.451306 -0.449805
v 0.296438 -2.251307 -0.449806
v 0.296438 -1.451306 -0.449805
v -0.303560 -2.251307 -0.449806
v 0.296438 -2.251307 0.150195
v -0.303560 -2.251307 0.150195
v 0.296438 -2.251307 -0.449806
v -0.103561 3.248693 -0.049804
v 0.096439 3.248693 0.150196
v -0.103561 3.248693 0.150196
v 0.096439 3.248693 -0.049804
v -0.103561 3.348693 0.150196
v 0.096439 3.348693 0.250195
v -0.103561 3.348693 0.250195
v 0.096439 3.348693 0.150196
v -0.103561 3.448693 0.250195
v 0.096439 3.448693 0.350195
v -0.103561 3.448693 0.350195
v 0.096439 3.448693 0.250195
v -0.103561 3.548694 0.350195
v 0.096439 3.548694 0.450196
v -0.103561 3.548694 0.450196
v 0.096439 3.548694 0.350195
v -0.103561 3.648694 0.450196
v 0.096439 3.648694 0.550195
v -0.103561 3.648694 0.550195
v 0.096439 3.648694 0.450196
v -0.103561 3.748693 0.550195
v 0.096439 3.748693 0.650196
v -0.103561 3.748693 0.650196
v 0.096439 3.748693 0.550195
v -0.103561 3.848693 1.850196
v 0.096439 3.848693 2.450196
v -0.103561 3.848693 2.450196
v 0.096439 3.848693 1.850196
v -0.103561 3.948693 0.650196
v 0.096439 3.948693 1.850196
v -0.103561 3.948693 1.850196
v 0.096439 3.948693 0.650196
v -0.103561 3.948693 -0.049804
v 0.096439 3.948693 0.550195
v -0.103561 3.948693 0.550195
v 0.096439 3.948693 -0.049804
v -0.303560 -1.451307 0.150195
v 0.296438 -1.451307 0.150195
v -0.203562 -1.451307 0.050195
v 0.196440 -1.451307 0.050195
v -0.203562 -1.451307 -0.349805
v 0.196440 -1.451307 -0.349805
v -0.303560 -1.451306 -0.449805
v 0.296438 -1.451306 -0.449805
v -0.203562 -0.551306 0.050195
v 0.196440 -0.551306 0.050195
v -0.103561 -0.551306 -0.049805
v 0.096439 -0.551306 -0.049805
v -0.103561 -0.551306 -0.249806
v 0.096439 -0.551306 -0.249806
v -0.203562 -0.551306 -0.349805
v 0.196440 -0.551306 -0.349805
v -0.103561 3.348693 0.050195
v 0.096439 3.348693 0.050195
v -0.103561 3.348693 -0.049804
v 0.096439 3.348693 -0.049804
v -0.103561 3.448693 0.150196
v 0.096439 3.448693 0.150196
v -0.103561 3.448693 0.050195
v 0.096439 3.448693 0.050195
v -0.103561 3.548694 0.250195
v 0.096439 3.548694 0.250195
v -0.103561 3.548694 0.150196
v 0.096439 3.548694 0.150196
v -0.103561 3.648694 0.350196
v 0.096439 3.648694 0.350196
v -0.103561 3.648694 0.250195
v 0.096439 3.648694 0.250195
v -0.103561 3.748693 0.450196
v 0.096439 3.748693 0.450196
v -0.103561 3.748693 0.350196
v 0.096439 3.748693 0.350196
v -0.103561 3.848693 0.550195
v 0.096439 3.848693 0.550195
v -0.103561 3.848693 0.450196
v 0.096439 3.848693 0.450196
v -0.103561 4.048693 2.450196
v 0.096439 4.048693 2.450196
v -0.103561 4.048694 -0.049804
v 0.096439 4.048694 -0.049804
v -0.103561 4.148694 -0.049804
v 0.096439 4.148694 -0.049804
v -0.103561 4.148694 -0.249805
v 0.096439 4.148694 -0.249805
vt 0.970703 0.500000
vt 0.970703 0.500000
vt 0.970703 0.500000
vt 0.970703 0.500000
vt 0.970703 0.500000
vt 0.970703 0.500000
vt 0.970703 0.500000
vt 0.970703 0.500000
vt 0.982422 0.500000
vt 0.982422 0.500000
vt 0.982422 0.500000
vt 0.982422 0.500000
vt 0.982422 0.500000
vt 0.982422 0.500000
vt 0.982422 0.500000
vt 0.982422 0.500000
vt 0.982422 0.500000
vt 0.982422 0.500000
vt 0.982422 0.500000
vt 0.982422 0.500000
vt 0.982422 0.500000
vt 0.982422 0.500000
vt 0.982422 0.500000
vt 0.982422 0.500000
vt 0.982422 0.500000
vt 0.982422 0.500000
vt 0.982422 0.500000
vt 0.982422 0.500000
vt 0.982422 0.500000
vt 0.982422 0.500000
vt 0.982422 0.500000
vt 0.982422 0.500000
vt 0.982422 0.500000
vt 0.982422 0.500000
vt 0.958984 0.500000
vt 0.958984 0.500000
vt 0.958984 0.500000
vt 0.958984 0.500000
vt 0.982422 0.500000
vt 0.982422 0.500000
vt 0.982422 0.500000
vt 0.982422 0.500000
vt 0.982422 0.500000
vt 0.982422 0.500000
vt 0.982422 0.500000
vt 0.982422 0.500000
vt 0.982422 0.500000
vt 0.982422 0.500000
vt 0.982422 0.500000
vt 0.982422 0.500000
vt 0.982422 0.500000
vt 0.982422 0.500000
vt 0.982422 0.500000
vt 0.982422 0.500000
vt 0.982422 0.500000
vt 0.982422 0.500000
vt 0.982422 0.500000
vt 0.982422 0.500000
vt 0.982422 0.500000
vt 0.982422 0.500000
vt 0.982422 0.500000
vt 0.982422 0.500000
vt 0.982422 0.500000
vt 0.982422 0.500000
vt 0.982422 0.500000
vt 0.982422 0.500000
vt 0.982422 0.500000
vt 0.982422 0.500000
vt 0.982422 0.500000
vt 0.982422 0.500000
vt 0.982422 0.500000
vt 0.982422 0.500000
vt 0.982422 0.500000
vt 0.958984 0.500000
vt 0.958984 0.500000
vt 0.958984 0.500000
vt 0.958984 0.500000
vt 0.982422 0.500000
vt 0.982422 0.500000
vt 0.982422 0.500000
vt 0.982422 0.500000
vt 0.982422 0.500000
vt 0.982422 0.500000
vt 0.982422 0.500000
vt 0.982422 0.500000
vt 0.982422 0.500000
vt 0.970703 0.500000
vt 0.970703 0.500000
vt 0.970703 0.500000
vt 0.970703 0.500000
vt 0.970703 0.500000
vt 0.970703 0.500000
vt 0.970703 0.500000
vt 0.970703 0.500000
vt 0.958984 0.500000
vt 0.958984 0.500000
vt 0.958984 0.500000
vt 0.982422 0.500000
vt 0.982422 0.500000
vt 0.982422 0.500000
vt 0.958984 0.500000
vt 0.982422 0.500000
vt 0.982422 0.500000
vt 0.982422 0.500000
vt 0.982422 0.500000
vt 0.982422 0.500000
vt 0.982422 0.500000
vt 0.982422 0.500000
vt 0.982422 0.500000
vt 0.982422 0.500000
vt 0.982422 0.500000
vt 0.982422 0.500000
vt 0.982422 0.500000
vt 0.982422 0.500000
vt 0.982422 0.500000
vt 0.982422 0.500000
vt 0.982422 0.500000
vt 0.982422 0.500000
vt 0.982422 0.500000
vt 0.982422 0.500000
vt 0.982422 0.500000
vt 0.982422 0.500000
vt 0.982422 0.500000
vt 0.982422 0.500000
vt 0.982422 0.500000
vt 0.982422 0.500000
vt 0.970703 0.500000
vt 0.970703 0.500000
vt 0.970703 0.500000
vt 0.970703 0.500000
vt 0.970703 0.500000
vt 0.970703 0.500000
vt 0.970703 0.500000
vt 0.970703 0.500000
vt 0.982422 0.500000
vt 0.982422 0.500000
vt 0.982422 0.500000
vt 0.982422 0.500000
vt 0.982422 0.500000
vt 0.982422 0.500000
vt 0.982422 0.500000
vt 0.982422 0.500000
vt 0.982422 0.500000
vt 0.982422 0.500000
vt 0.982422 0.500000
vt 0.982422 0.500000
vt 0.958984 0.500000
vt 0.958984 0.500000
vt 0.958984 0.500000
vt 0.958984 0.500000
vt 0.982422 0.500000
vt 0.982422 0.500000
vt 0.982422 0.500000
vt 0.982422 0.500000
vt 0.982422 0.500000
vt 0.982422 0.500000
vt 0.982422 0.500000
vt 0.982422 0.500000
vt 0.982422 0.500000
vt 0.982422 0.500000
vt 0.982422 0.500000
vt 0.982422 0.500000
vt 0.982422 0.500000
vt 0.982422 0.500000
vt 0.982422 0.500000
vt 0.982422 0.500000
vt 0.982422 0.500000
vt 0.982422 0.500000
vt 0.982422 0.500000
vt 0.982422 0.500000
vt 0.982422 0.500000
vt 0.982422 0.500000
vt 0.982422 0.500000
vt 0.982422 0.500000
vt 0.982422 0.500000
vt 0.982422 0.500000
vt 0.982422 0.500000
vt 0.982422 0.500000
vt 0.970703 0.500000
vt 0.970703 0.500000
vt 0.970703 0.500000
vt 0.970703 0.500000
vt 0.970703 0.500000
vt 0.970703 0.500000
vt 0.970703 0.500000
vt 0.970703 0.500000
vt 0.970703 0.500000
vt 0.970703 0.500000
vt 0.970703 0.500000
vt 0.970703 0.500000
vt 0.982422 0.500000
vt 0.982422 0.500000
vt 0.982422 0.500000
vt 0.982422 0.500000
vt 0.982422 0.500000
vt 0.982422 0.500000
vt 0.982422 0.500000
vt 0.982422 0.500000
vt 0.982422 0.500000
vt 0.982422 0.500000
vt 0.982422 0.500000
vt 0.982422 0.500000
vt 0.982422 0.500000
vt 0.982422 0.500000
vt 0.982422 0.500000
vt 0.982422 0.500000
vt 0.982422 0.500000
vt 0.982422 0.500000
vt 0.982422 0.500000
vt 0.982422 0.500000
vt 0.982422 0.500000
vt 0.982422 0.500000
vt 0.982422 0.500000
vt 0.982422 0.500000
vt 0.958984 0.500000
vt 0.958984 0.500000
vt 0.958984 0.500000
vt 0.958984 0.500000
vt 0.982422 0.500000
vt 0.982422 0.500000
vt 0.982422 0.500000
vt 0.982422 0.500000
vt 0.982422 0.500000
vt 0.982422 0.500000
vt 0.982422 0.500000
vt 0.982422 0.500000
vt 0.970703 0.500000
vt 0.970703 0.500000
vt 0.970703 0.500000
vt 0.970703 0.500000
vt 0.970703 0.500000
vt 0.970703 0.500000
vt 0.970703 0.500000
vt 0.970703 0.500000
vt 0.970703 0.500000
vt 0.970703 0.500000
vt 0.970703 0.500000
vt 0.970703 0.500000
vt 0.970703 0.500000
vt 0.970703 0.500000
vt 0.970703 0.500000
vt 0.970703 0.500000
vt 0.982422 0.500000
vt 0.982422 0.500000
vt 0.982422 0.500000
vt 0.982422 0.500000
vt 0.982422 0.500000
vt 0.982422 0.500000
vt 0.982422 0.500000
vt 0.982422 0.500000
vt 0.982422 0.500000
vt 0.982422 0.500000
vt 0.982422 0.500000
vt 0.982422 0.500000
vt 0.982422 0.500000
vt 0.982422 0.500000
vt 0.982422 0.500000
vt 0.982422 0.500000
vt 0.982422 0.500000
vt 0.982422 0.500000
vt 0.982422 0.500000
vt 0.982422 0.500000
vt 0.982422 0.500000
vt 0.982422 0.500000
vt 0.982422 0.500000
vt 0.982422 0.500000
vt 0.982422 0.500000
vt 0.982422 0.500000
vt 0.982422 0.500000
vt 0.982422 0.500000
vt 0.982422 0.500000
vt 0.982422 0.500000
vt 0.982422 0.500000
vt 0.982422 0.500000
vn -1.0000 0.0000 0.0000
vn -1.0000 0.0005 0.0000
vn 1.0000 -0.0000 0.0000
vn 1.0000 -0.0003 -0.0000
vn 0.0000 0.0000 1.0000
vn 0.0000 0.0000 -1.0000
vn 0.0000 -1.0000 0.0000
vn 0.0000 1.0000 0.0000
usemtl palette
s 1
f 1/1/1 2/2/1 3/3/1
f 4/4/1 2/2/1 1/1/1
f 5/5/1 6/6/1 7/7/1
f 8/8/1 6/6/1 5/5/1
f 9/9/1 10/10/1 11/11/1
f 12/12/1 9/9/1 13/13/1
f 14/14/1 9/9/1 12/12/1
f 15/15/1 10/10/1 9/9/1
f 15/15/1 9/9/1 14/14/1
f 16/16/1 14/14/1 12/12/1
f 16/16/1 12/12/1 17/17/1
f 18/18/1 14/14/1 16/16/1
f 19/19/1 14/14/1 18/18/1
f 20/20/1 16/16/1 21/21/1
f 20/20/1 18/18/1 16/16/1
f 22/22/1 18/18/1 20/20/1
f 23/23/1 18/18/1 22/22/1
f 24/24/1 20/20/1 25/25/1
f 24/24/1 22/22/1 20/20/1
f 26/26/1 22/22/1 24/24/1
f 27/27/1 22/22/1 26/26/1
f 28/28/1 24/24/1 29/29/1
f 28/28/1 26/26/1 24/24/1
f 30/30/1 26/26/1 28/28/1
f 31/31/1 26/26/1 30/30/1
f 32/32/1 28/28/1 33/33/1
f 32/32/1 30/30/1 28/28/1
f 34/34/1 30/30/1 32/32/1
f 35/35/1 36/36/1 37/37/1
f 38/38/1 36/36/1 35/35/1
f 39/39/2 32/32/1 33/33/1
f 40/40/1 32/32/1 39/39/2
f 41/41/1 10/10/1 15/15/1
f 42/42/1 40/40/1 39/39/2
f 42/42/1 41/41/1 40/40/1
f 42/42/1 39/39/2 38/43/1
f 42/42/1 38/43/1 35/44/1
f 43/45/1 10/10/1 41/41/1
f 43/45/1 41/41/1 42/42/1
f 44/46/1 10/10/1 43/45/1
f 45/47/1 10/10/1 44/46/1
f 46/48/3 47/49/3 48/50/3
f 49/51/3 48/50/3 50/52/3
f 50/52/3 48/50/3 51/53/3
f 48/50/3 47/49/3 52/54/3
f 51/53/3 48/50/3 52/54/3
f 50/52/3 51/53/3 53/55/3
f 54/56/3 50/52/3 53/55/3
f 53/55/3 51/53/3 55/57/3
f 55/57/3 51/53/3 56/58/3
f 57/59/3 53/55/3 58/60/3
f 53/55/3 55/57/3 58/60/3
f 58/60/3 55/57/3 59/61/3
f 59/61/3 55/57/3 60/62/3
f 61/63/3 58/60/3 62/64/3
f 58/60/3 59/61/3 62/64/3
f 62/64/3 59/61/3 63/65/3
f 63/65/3 59/61/3 64/66/3
f 65/67/3 62/64/3 66/68/3
f 62/64/3 63/65/3 66/68/3
f 66/68/3 63/65/3 67/69/3
f 67/69/3 63/65/3 68/70/3
f 69/71/3 66/68/3 70/72/3
f 66/68/3 67/69/3 70/72/3
f 70/72/3 67/69/3 71/73/3
f 72/74/3 73/75/3 74/76/3
f 74/76/3 73/75/3 75/77/3
f 69/71/3 70/72/3 76/78/4
f 76/78/4 70/72/3 77/79/3
f 52/54/3 47/49/3 78/80/3
f 76/78/4 77/79/3 79/81/3
f 77/79/3 78/80/3 79/81/3
f 75/82/3 76/78/4 79/81/3
f 74/83/3 75/82/3 79/81/3
f 78/80/3 47/49/3 80/84/3
f 79/81/3 78/80/3 80/84/3
f 80/84/3 47/49/3 81/85/3
f 81/85/3 47/49/3 82/86/3
f 83/87/3 84/88/3 85/89/3
f 85/89/3 84/88/3 86/90/3
f 87/91/3 88/92/3 89/93/3
f 89/93/3 88/92/3 90/94/3
f 91/95/5 92/96/5 93/97/5
f 94/98/5 95/99/5 92/100/5
f 94/101/5 92/96/5 91/95/5
f 96/102/5 95/99/5 94/98/5
f 97/103/5 98/104/5 99/105/5
f 100/106/5 98/104/5 97/103/5
f 101/107/5 102/108/5 103/109/5
f 104/110/5 102/108/5 101/107/5
f 105/111/5 106/112/5 107/113/5
f 108/114/5 106/112/5 105/111/5
f 109/115/5 110/116/5 111/117/5
f 112/118/5 110/116/5 109/115/5
f 113/119/5 114/120/5 115/121/5
f 116/122/5 114/120/5 113/119/5
f 117/123/5 118/124/5 119/125/5
f 120/126/5 118/124/5 117/123/5
f 121/127/5 122/128/5 123/129/5
f 124/130/5 122/128/5 121/127/5
f 125/131/5 126/132/5 127/133/5
f 128/134/5 126/132/5 125/131/5
f 129/135/5 130/136/5 131/137/5
f 132/138/5 130/136/5 129/135/5
f 133/139/5 134/140/5 135/141/5
f 136/142/5 134/140/5 133/139/5
f 137/143/5 138/144/5 139/145/5
f 140/146/5 138/144/5 137/143/5
f 141/147/6 142/148/6 143/149/6
f 143/149/6 142/148/6 144/150/6
f 145/151/6 146/152/6 147/153/6
f 147/153/6 146/152/6 148/154/6
f 149/155/6 150/156/6 151/157/6
f 151/157/6 150/156/6 152/158/6
f 153/159/6 154/160/6 155/161/6
f 155/161/6 154/160/6 156/162/6
f 157/163/6 158/164/6 159/165/6
f 159/165/6 158/164/6 160/166/6
f 161/167/6 162/168/6 163/169/6
f 163/169/6 162/168/6 164/170/6
f 165/171/6 166/172/6 167/173/6
f 167/173/6 166/172/6 168/174/6
f 169/175/6 170/176/6 171/177/6
f 171/177/6 170/176/6 172/178/6
f 173/179/6 174/180/6 175/181/6
f 175/181/6 174/180/6 176/182/6
f 177/183/6 178/184/6 179/185/6
f 179/185/6 178/184/6 180/186/6
f 181/187/7 182/188/7 183/189/7
f 184/190/7 182/188/7 181/187/7
f 185/191/7 186/192/7 187/193/7
f 188/194/7 186/192/7 185/191/7
f 189/195/7 190/196/7 191/197/7
f 192/198/7 190/196/7 189/195/7
f 193/199/7 194/200/7 195/201/7
f 196/202/7 194/200/7 193/199/7
f 197/203/7 198/204/7 199/205/7
f 200/206/7 198/204/7 197/203/7
f 201/207/7 202/208/7 203/209/7
f 204/210/7 202/208/7 201/207/7
f 205/211/7 206/212/7 207/213/7
f 208/214/7 206/212/7 205/211/7
f 209/215/7 210/216/7 211/217/7
f 212/218/7 210/216/7 209/215/7
f 213/219/7 214/220/7 215/221/7
f 216/222/7 214/220/7 213/219/7
f 217/223/7 218/224/7 219/225/7
f 220/226/7 218/224/7 217/223/7
f 221/227/8 222/228/8 223/229/8
f 223/229/8 222/228/8 224/230/8
f 221/227/8 223/229/8 225/231/8
f 224/230/8 222/228/8 226/232/8
f 221/227/8 225/231/8 227/233/8
f 225/231/8 226/232/8 227/233/8
f 226/232/8 222/228/8 228/234/8
f 227/233/8 226/232/8 228/234/8
f 229/235/8 230/236/8 231/237/8
f 231/237/8 230/236/8 232/238/8
f 229/235/8 231/237/8 233/239/8
f 232/238/8 230/236/8 234/240/8
f 229/235/8 233/239/8 235/241/8
f 233/239/8 234/240/8 235/241/8
f 234/240/8 230/236/8 236/242/8
f 235/241/8 234/240/8 236/242/8
f 237/243/8 238/244/8 239/245/8
f 239/245/8 238/244/8 240/246/8
f 241/247/8 242/248/8 243/249/8
f 243/249/8 242/248/8 244/250/8
f 245/251/8 246/252/8 247/253/8
f 247/253/8 246/252/8 248/254/8
f 249/255/8 250/256/8 251/257/8
f 251/257/8 250/256/8 252/258/8
f 253/259/8 254/260/8 255/261/8
f 255/261/8 254/260/8 256/262/8
f 257/263/8 258/264/8 259/265/8
f 259/265/8 258/264/8 260/266/8
f 261/267/8 262/268/8 263/269/8
f 263/269/8 262/268/8 264/270/8
f 265/271/8 266/272/8 267/273/8
f 267/273/8 266/272/8 268/274/8
