# Blender v2.80 (sub 75) OBJ File: 'GDS2_TrainAccesories-2.blend'
# www.blender.org
mtllib GDS2_TrainAccesories-2.mtl
o GDS2_TrainAccesories-2
v -0.067030 -0.346521 0.567353
v -0.067030 -0.546521 0.467353
v -0.067030 -0.546521 0.567353
v -0.067030 -0.346521 0.467353
v -0.067030 -0.346521 -0.432647
v -0.067030 -0.546521 -0.632647
v -0.067030 -0.546521 -0.432647
v -0.067030 -0.346521 -0.632647
v -0.067030 -0.146521 0.567353
v -0.067030 -0.146521 0.467353
v -0.067030 -0.146521 -0.432647
v -0.067030 -0.146521 -0.632647
v -0.067030 -0.046521 0.467353
v -0.067030 -0.146521 0.267353
v -0.067030 -0.046521 0.267353
v -0.067030 -0.146521 0.067353
v -0.067030 -0.046521 0.067353
v -0.067030 -0.146521 -0.132647
v -0.067030 -0.046521 -0.132647
v -0.067030 -0.146521 -0.332647
v -0.067030 -0.046521 -0.332647
v -0.067030 -0.046521 -0.432647
v -0.067030 0.053479 0.567353
v -0.067030 0.053479 0.467353
v -0.067030 0.053479 -0.432647
v -0.067030 0.053479 -0.632647
v -0.067030 0.253479 0.567353
v -0.067030 0.253479 0.467353
v -0.067030 0.253479 -0.432647
v -0.067030 0.253479 -0.632647
v -0.067030 0.353479 0.467353
v -0.067030 0.253479 0.267353
v -0.067030 0.353479 0.267353
v -0.067030 0.253479 0.067353
v -0.067030 0.353479 0.067353
v -0.067030 0.253479 -0.132647
v -0.067030 0.353479 -0.132647
v -0.067030 0.253479 -0.332647
v -0.067030 0.353479 -0.332647
v -0.067030 0.353479 -0.432647
v -0.067030 0.453479 0.567353
v -0.067030 0.453479 0.467353
v -0.067030 0.453479 -0.432647
v -0.067030 0.453479 -0.632647
v 0.032970 -0.546521 -0.432647
v 0.032970 -0.546521 -0.632647
v 0.032970 -0.346521 -0.432647
v 0.032970 -0.346521 -0.632647
v 0.032970 -0.146521 -0.432647
v 0.032970 -0.146521 -0.632647
v 0.032970 -0.146521 0.467353
v 0.032970 -0.146521 0.267353
v 0.032970 -0.046521 0.467353
v 0.032970 -0.146521 0.067353
v 0.032970 -0.046521 0.267353
v 0.032970 -0.146521 -0.132647
v 0.032970 -0.046521 0.067353
v 0.032970 -0.146521 -0.332647
v 0.032970 -0.046521 -0.132647
v 0.032970 -0.046521 -0.332647
v 0.032970 -0.046521 -0.432647
v 0.032970 0.053479 -0.432647
v 0.032970 0.053479 -0.632647
v 0.032970 0.253479 -0.432647
v 0.032970 0.253479 -0.632647
v 0.032970 0.253479 0.467353
v 0.032970 0.253479 0.267353
v 0.032970 0.353479 0.467353
v 0.032970 0.253479 0.067353
v 0.032970 0.353479 0.267353
v 0.032970 0.253479 -0.132647
v 0.032970 0.353479 0.067353
v 0.032970 0.253479 -0.332647
v 0.032970 0.353479 -0.132647
v 0.032970 0.353479 -0.332647
v 0.032970 0.353479 -0.432647
v 0.032970 0.453479 -0.432647
v 0.032970 0.453479 -0.632647
v 0.132970 -0.546521 0.567353
v 0.132970 -0.546521 0.467353
v 0.132970 -0.346521 0.567353
v 0.132970 -0.346521 0.467353
v 0.132970 -0.146521 0.567353
v 0.132970 -0.146521 0.467353
v 0.132970 0.053479 0.567353
v 0.132970 0.053479 0.467353
v 0.132970 0.253479 0.567353
v 0.132970 0.253479 0.467353
v 0.132970 0.453479 0.567353
v 0.132970 0.453479 0.467353
v 0.132970 -0.546521 0.567353
v -0.067030 -0.346521 0.567353
v -0.067030 -0.546521 0.567353
v 0.132970 -0.346521 0.567353
v -0.067030 -0.146521 0.567353
v 0.132970 -0.146521 0.567353
v -0.067030 0.053479 0.567353
v 0.132970 0.053479 0.567353
v -0.067030 0.253479 0.567353
v 0.132970 0.253479 0.567353
v -0.067030 0.453479 0.567353
v 0.132970 0.453479 0.567353
v 0.032970 -0.546521 -0.432647
v -0.067030 -0.346521 -0.432647
v -0.067030 -0.546521 -0.432647
v 0.032970 -0.346521 -0.432647
v -0.067030 -0.146521 -0.432647
v 0.032970 -0.146521 -0.432647
v 0.032970 -0.046521 -0.432647
v -0.067030 0.053479 -0.432647
v -0.067030 -0.046521 -0.432647
v 0.032970 0.053479 -0.432647
v -0.067030 0.253479 -0.432647
v 0.032970 0.253479 -0.432647
v 0.032970 0.353479 -0.432647
v -0.067030 0.453479 -0.432647
v -0.067030 0.353479 -0.432647
v 0.032970 0.453479 -0.432647
v -0.067030 -0.346521 0.467353
v -0.067030 -0.146521 0.467353
v 0.032970 -0.146521 0.467353
v -0.067030 -0.046521 0.467353
v -0.067030 0.053479 0.467353
v 0.032970 -0.046521 0.467353
v -0.067030 0.253479 0.467353
v 0.032970 0.253479 0.467353
v -0.067030 0.353479 0.467353
v -0.067030 0.453479 0.467353
v 0.032970 0.353479 0.467353
v -0.067030 -0.546521 0.467353
v 0.132970 -0.546521 0.467353
v 0.132970 -0.346521 0.467353
v 0.132970 -0.146521 0.467353
v 0.132970 0.053479 0.467353
v 0.132970 0.253479 0.467353
v 0.132970 0.453479 0.467353
v -0.067030 -0.546521 -0.632647
v -0.067030 -0.346521 -0.632647
v 0.032970 -0.546521 -0.632647
v -0.067030 -0.146521 -0.632647
v 0.032970 -0.346521 -0.632647
v -0.067030 0.053479 -0.632647
v 0.032970 -0.146521 -0.632647
v -0.067030 0.253479 -0.632647
v 0.032970 0.053479 -0.632647
v -0.067030 0.453479 -0.632647
v 0.032970 0.253479 -0.632647
v 0.032970 0.453479 -0.632647
v -0.067030 -0.546521 0.467353
v 0.132970 -0.546521 0.567353
v -0.067030 -0.546521 0.567353
v 0.132970 -0.546521 0.467353
v -0.067030 -0.546521 -0.632647
v 0.032970 -0.546521 -0.432647
v -0.067030 -0.546521 -0.432647
v 0.032970 -0.546521 -0.632647
v -0.067030 -0.146521 0.267353
v 0.032970 -0.146521 0.467353
v -0.067030 -0.146521 0.467353
v 0.032970 -0.146521 0.267353
v -0.067030 -0.146521 0.067353
v 0.032970 -0.146521 0.067353
v -0.067030 -0.146521 -0.132647
v 0.032970 -0.146521 -0.132647
v -0.067030 -0.146521 -0.332647
v 0.032970 -0.146521 -0.332647
v -0.067030 -0.146521 -0.432647
v 0.032970 -0.146521 -0.432647
v -0.067030 0.253479 0.267353
v 0.032970 0.253479 0.467353
v -0.067030 0.253479 0.467353
v 0.032970 0.253479 0.267353
v -0.067030 0.253479 0.067353
v 0.032970 0.253479 0.067353
v -0.067030 0.253479 -0.132647
v 0.032970 0.253479 -0.132647
v -0.067030 0.253479 -0.332647
v 0.032970 0.253479 -0.332647
v -0.067030 0.253479 -0.432647
v 0.032970 0.253479 -0.432647
v -0.067030 -0.046521 0.467353
v 0.032970 -0.046521 0.467353
v -0.067030 -0.046521 0.267353
v 0.032970 -0.046521 0.267353
v -0.067030 -0.046521 0.067353
v 0.032970 -0.046521 0.067353
v -0.067030 -0.046521 -0.132647
v 0.032970 -0.046521 -0.132647
v -0.067030 -0.046521 -0.332647
v 0.032970 -0.046521 -0.332647
v -0.067030 -0.046521 -0.432647
v 0.032970 -0.046521 -0.432647
v -0.067030 0.353479 0.467353
v 0.032970 0.353479 0.467353
v -0.067030 0.353479 0.267353
v 0.032970 0.353479 0.267353
v -0.067030 0.353479 0.067353
v 0.032970 0.353479 0.067353
v -0.067030 0.353479 -0.132647
v 0.032970 0.353479 -0.132647
v -0.067030 0.353479 -0.332647
v 0.032970 0.353479 -0.332647
v -0.067030 0.353479 -0.432647
v 0.032970 0.353479 -0.432647
v -0.067030 0.453479 0.567353
v 0.132970 0.453479 0.567353
v -0.067030 0.453479 0.467353
v 0.132970 0.453479 0.467353
v -0.067030 0.453479 -0.432647
v 0.032970 0.453479 -0.432647
v -0.067030 0.453479 -0.632647
v 0.032970 0.453479 -0.632647
vt 0.041016 0.500000
vt 0.041016 0.500000
vt 0.041016 0.500000
vt 0.041016 0.500000
vt 0.041016 0.500000
vt 0.041016 0.500000
vt 0.041016 0.500000
vt 0.041016 0.500000
vt 0.990234 0.500000
vt 0.990234 0.500000
vt 0.990234 0.500000
vt 0.990234 0.500000
vt 0.990234 0.500000
vt 0.990234 0.500000
vt 0.990234 0.500000
vt 0.990234 0.500000
vt 0.041016 0.500000
vt 0.041016 0.500000
vt 0.041016 0.500000
vt 0.041016 0.500000
vt 0.990234 0.500000
vt 0.990234 0.500000
vt 0.990234 0.500000
vt 0.041016 0.500000
vt 0.041016 0.500000
vt 0.041016 0.500000
vt 0.041016 0.500000
vt 0.990234 0.500000
vt 0.990234 0.500000
vt 0.990234 0.500000
vt 0.990234 0.500000
vt 0.041016 0.500000
vt 0.041016 0.500000
vt 0.041016 0.500000
vt 0.041016 0.500000
vt 0.990234 0.500000
vt 0.041016 0.500000
vt 0.041016 0.500000
vt 0.041016 0.500000
vt 0.041016 0.500000
vt 0.041016 0.500000
vt 0.041016 0.500000
vt 0.990234 0.500000
vt 0.990234 0.500000
vt 0.990234 0.500000
vt 0.990234 0.500000
vt 0.990234 0.500000
vt 0.990234 0.500000
vt 0.990234 0.500000
vt 0.990234 0.500000
vt 0.041016 0.500000
vt 0.041016 0.500000
vt 0.041016 0.500000
vt 0.041016 0.500000
vt 0.990234 0.500000
vt 0.990234 0.500000
vt 0.990234 0.500000
vt 0.041016 0.500000
vt 0.041016 0.500000
vt 0.041016 0.500000
vt 0.041016 0.500000
vt 0.990234 0.500000
vt 0.990234 0.500000
vt 0.990234 0.500000
vt 0.990234 0.500000
vt 0.041016 0.500000
vt 0.041016 0.500000
vt 0.041016 0.500000
vt 0.041016 0.500000
vt 0.990234 0.500000
vt 0.041016 0.500000
vt 0.041016 0.500000
vt 0.041016 0.500000
vt 0.041016 0.500000
vt 0.041016 0.500000
vt 0.041016 0.500000
vt 0.041016 0.500000
vt 0.041016 0.500000
vt 0.041016 0.500000
vt 0.041016 0.500000
vt 0.990234 0.500000
vt 0.990234 0.500000
vt 0.990234 0.500000
vt 0.990234 0.500000
vt 0.041016 0.500000
vt 0.041016 0.500000
vt 0.041016 0.500000
vt 0.990234 0.500000
vt 0.990234 0.500000
vt 0.990234 0.500000
vt 0.041016 0.500000
vt 0.041016 0.500000
vt 0.041016 0.500000
vt 0.041016 0.500000
vt 0.990234 0.500000
vt 0.990234 0.500000
vt 0.990234 0.500000
vt 0.990234 0.500000
vt 0.041016 0.500000
vt 0.041016 0.500000
vt 0.041016 0.500000
vt 0.041016 0.500000
vt 0.990234 0.500000
vt 0.041016 0.500000
vt 0.041016 0.500000
vt 0.041016 0.500000
vt 0.041016 0.500000
vt 0.990234 0.500000
vt 0.990234 0.500000
vt 0.990234 0.500000
vt 0.990234 0.500000
vt 0.041016 0.500000
vt 0.041016 0.500000
vt 0.041016 0.500000
vt 0.990234 0.500000
vt 0.990234 0.500000
vt 0.990234 0.500000
vt 0.041016 0.500000
vt 0.041016 0.500000
vt 0.041016 0.500000
vt 0.041016 0.500000
vt 0.990234 0.500000
vt 0.990234 0.500000
vt 0.990234 0.500000
vt 0.990234 0.500000
vt 0.041016 0.500000
vt 0.041016 0.500000
vt 0.041016 0.500000
vt 0.041016 0.500000
vt 0.990234 0.500000
vt 0.041016 0.500000
vt 0.041016 0.500000
vt 0.041016 0.500000
vt 0.041016 0.500000
vt 0.041016 0.500000
vt 0.041016 0.500000
vt 0.041016 0.500000
vt 0.041016 0.500000
vt 0.990234 0.500000
vt 0.990234 0.500000
vt 0.990234 0.500000
vt 0.990234 0.500000
vt 0.041016 0.500000
vt 0.041016 0.500000
vt 0.041016 0.500000
vt 0.041016 0.500000
vt 0.990234 0.500000
vt 0.990234 0.500000
vt 0.990234 0.500000
vt 0.990234 0.500000
vt 0.041016 0.500000
vt 0.041016 0.500000
vt 0.041016 0.500000
vt 0.041016 0.500000
vt 0.041016 0.500000
vt 0.041016 0.500000
vt 0.041016 0.500000
vt 0.990234 0.500000
vt 0.990234 0.500000
vt 0.990234 0.500000
vt 0.041016 0.500000
vt 0.041016 0.500000
vt 0.041016 0.500000
vt 0.041016 0.500000
vt 0.990234 0.500000
vt 0.990234 0.500000
vt 0.990234 0.500000
vt 0.990234 0.500000
vt 0.041016 0.500000
vt 0.041016 0.500000
vt 0.041016 0.500000
vt 0.041016 0.500000
vt 0.990234 0.500000
vt 0.041016 0.500000
vt 0.041016 0.500000
vt 0.041016 0.500000
vt 0.041016 0.500000
vt 0.990234 0.500000
vt 0.990234 0.500000
vt 0.990234 0.500000
vt 0.041016 0.500000
vt 0.990234 0.500000
vt 0.041016 0.500000
vt 0.041016 0.500000
vt 0.041016 0.500000
vt 0.990234 0.500000
vt 0.990234 0.500000
vt 0.990234 0.500000
vt 0.041016 0.500000
vt 0.990234 0.500000
vt 0.041016 0.500000
vt 0.041016 0.500000
vt 0.041016 0.500000
vt 0.041016 0.500000
vt 0.990234 0.500000
vt 0.990234 0.500000
vt 0.990234 0.500000
vt 0.041016 0.500000
vt 0.041016 0.500000
vt 0.041016 0.500000
vt 0.990234 0.500000
vt 0.990234 0.500000
vt 0.990234 0.500000
vt 0.041016 0.500000
vt 0.041016 0.500000
vt 0.041016 0.500000
vt 0.041016 0.500000
vt 0.041016 0.500000
vt 0.041016 0.500000
vt 0.990234 0.500000
vt 0.041016 0.500000
vt 0.041016 0.500000
vt 0.041016 0.500000
vt 0.990234 0.500000
vt 0.990234 0.500000
vt 0.041016 0.500000
vt 0.041016 0.500000
vt 0.041016 0.500000
vt 0.990234 0.500000
vt 0.041016 0.500000
vt 0.041016 0.500000
vt 0.041016 0.500000
vt 0.041016 0.500000
vt 0.990234 0.500000
vt 0.990234 0.500000
vt 0.990234 0.500000
vt 0.041016 0.500000
vt 0.041016 0.500000
vt 0.041016 0.500000
vt 0.041016 0.500000
vt 0.990234 0.500000
vt 0.990234 0.500000
vt 0.990234 0.500000
vt 0.990234 0.500000
vt 0.041016 0.500000
vt 0.041016 0.500000
vt 0.041016 0.500000
vt 0.041016 0.500000
vt 0.990234 0.500000
vt 0.041016 0.500000
vt 0.041016 0.500000
vt 0.041016 0.500000
vt 0.041016 0.500000
vt 0.041016 0.500000
vt 0.041016 0.500000
vt 0.041016 0.500000
vt 0.041016 0.500000
vt 0.041016 0.500000
vt 0.041016 0.500000
vt 0.041016 0.500000
vt 0.041016 0.500000
vt 0.041016 0.500000
vt 0.990234 0.500000
vt 0.990234 0.500000
vt 0.990234 0.500000
vt 0.990234 0.500000
vt 0.041016 0.500000
vt 0.041016 0.500000
vt 0.041016 0.500000
vt 0.041016 0.500000
vt 0.990234 0.500000
vt 0.990234 0.500000
vt 0.990234 0.500000
vt 0.990234 0.500000
vt 0.041016 0.500000
vt 0.041016 0.500000
vt 0.041016 0.500000
vt 0.041016 0.500000
vt 0.041016 0.500000
vt 0.041016 0.500000
vt 0.041016 0.500000
vt 0.041016 0.500000
vt 0.990234 0.500000
vt 0.990234 0.500000
vt 0.990234 0.500000
vt 0.990234 0.500000
vt 0.041016 0.500000
vt 0.041016 0.500000
vt 0.041016 0.500000
vt 0.041016 0.500000
vt 0.990234 0.500000
vt 0.990234 0.500000
vt 0.990234 0.500000
vt 0.990234 0.500000
vt 0.041016 0.500000
vt 0.041016 0.500000
vt 0.041016 0.500000
vt 0.041016 0.500000
vt 0.041016 0.500000
vt 0.041016 0.500000
vt 0.041016 0.500000
vt 0.041016 0.500000
vt 0.990234 0.500000
vt 0.990234 0.500000
vt 0.990234 0.500000
vt 0.990234 0.500000
vt 0.041016 0.500000
vt 0.041016 0.500000
vt 0.041016 0.500000
vt 0.041016 0.500000
vt 0.990234 0.500000
vt 0.990234 0.500000
vt 0.990234 0.500000
vt 0.990234 0.500000
vt 0.041016 0.500000
vt 0.041016 0.500000
vt 0.041016 0.500000
vt 0.041016 0.500000
vt 0.041016 0.500000
vt 0.041016 0.500000
vt 0.041016 0.500000
vt 0.041016 0.500000
vt 0.990234 0.500000
vt 0.990234 0.500000
vt 0.990234 0.500000
vt 0.990234 0.500000
vt 0.041016 0.500000
vt 0.041016 0.500000
vt 0.041016 0.500000
vt 0.041016 0.500000
vt 0.990234 0.500000
vt 0.990234 0.500000
vt 0.990234 0.500000
vt 0.990234 0.500000
vt 0.041016 0.500000
vt 0.041016 0.500000
vt 0.041016 0.500000
vt 0.041016 0.500000
vt 0.041016 0.500000
vt 0.041016 0.500000
vt 0.041016 0.500000
vt 0.041016 0.500000
vt 0.041016 0.500000
vt 0.041016 0.500000
vt 0.041016 0.500000
vt 0.041016 0.500000
vn -1.0000 0.0000 0.0000
vn 1.0000 0.0000 0.0000
vn 0.0000 0.0000 1.0000
vn 0.0000 0.0000 -1.0000
vn 0.0000 -1.0000 -0.0000
vn 0.0000 1.0000 0.0000
usemtl palette
s 1
f 1/1/1 2/2/1 3/3/1
f 4/4/1 2/2/1 1/1/1
f 5/5/1 6/6/1 7/7/1
f 8/8/1 6/6/1 5/5/1
f 9/9/1 4/10/1 1/11/1
f 10/12/1 4/10/1 9/9/1
f 11/13/1 8/14/1 5/15/1
f 12/16/1 8/14/1 11/13/1
f 13/17/1 10/18/1 9/19/1
f 13/17/1 14/20/1 10/18/1
f 15/21/1 16/22/1 14/23/1
f 15/24/1 14/20/1 13/17/1
f 17/25/1 18/26/1 16/27/1
f 17/28/1 16/22/1 15/21/1
f 19/29/1 20/30/1 18/31/1
f 19/32/1 18/26/1 17/25/1
f 21/33/1 12/34/1 11/35/1
f 21/36/1 20/30/1 19/29/1
f 21/33/1 11/35/1 20/37/1
f 22/38/1 12/34/1 21/33/1
f 23/39/1 13/17/1 9/19/1
f 24/40/1 13/17/1 23/39/1
f 25/41/1 12/34/1 22/38/1
f 26/42/1 12/34/1 25/41/1
f 27/43/1 24/44/1 23/45/1
f 28/46/1 24/44/1 27/43/1
f 29/47/1 26/48/1 25/49/1
f 30/50/1 26/48/1 29/47/1
f 31/51/1 28/52/1 27/53/1
f 31/51/1 32/54/1 28/52/1
f 33/55/1 34/56/1 32/57/1
f 33/58/1 32/54/1 31/51/1
f 35/59/1 36/60/1 34/61/1
f 35/62/1 34/56/1 33/55/1
f 37/63/1 38/64/1 36/65/1
f 37/66/1 36/60/1 35/59/1
f 39/67/1 30/68/1 29/69/1
f 39/70/1 38/64/1 37/63/1
f 39/67/1 29/69/1 38/71/1
f 40/72/1 30/68/1 39/67/1
f 41/73/1 31/51/1 27/53/1
f 42/74/1 31/51/1 41/73/1
f 43/75/1 30/68/1 40/72/1
f 44/76/1 30/68/1 43/75/1
f 45/77/2 46/78/2 47/79/2
f 47/79/2 46/78/2 48/80/2
f 47/81/2 48/82/2 49/83/2
f 49/83/2 48/82/2 50/84/2
f 51/85/2 52/86/2 53/87/2
f 52/88/2 54/89/2 55/90/2
f 53/87/2 52/86/2 55/91/2
f 54/92/2 56/93/2 57/94/2
f 55/90/2 54/89/2 57/95/2
f 56/96/2 58/97/2 59/98/2
f 57/94/2 56/93/2 59/99/2
f 58/100/2 49/101/2 60/102/2
f 59/98/2 58/97/2 60/103/2
f 49/101/2 50/104/2 60/102/2
f 60/102/2 50/104/2 61/105/2
f 61/105/2 50/104/2 62/106/2
f 62/106/2 50/104/2 63/107/2
f 62/108/2 63/109/2 64/110/2
f 64/110/2 63/109/2 65/111/2
f 66/112/2 67/113/2 68/114/2
f 67/115/2 69/116/2 70/117/2
f 68/114/2 67/113/2 70/118/2
f 69/119/2 71/120/2 72/121/2
f 70/117/2 69/116/2 72/122/2
f 71/123/2 73/124/2 74/125/2
f 72/121/2 71/120/2 74/126/2
f 73/127/2 64/128/2 75/129/2
f 74/125/2 73/124/2 75/130/2
f 64/128/2 65/131/2 75/129/2
f 75/129/2 65/131/2 76/132/2
f 76/132/2 65/131/2 77/133/2
f 77/133/2 65/131/2 78/134/2
f 79/135/2 80/136/2 81/137/2
f 81/137/2 80/136/2 82/138/2
f 81/139/2 82/140/2 83/141/2
f 83/141/2 82/140/2 84/142/2
f 83/143/2 84/144/2 85/145/2
f 85/145/2 84/144/2 86/146/2
f 85/147/2 86/148/2 87/149/2
f 87/149/2 86/148/2 88/150/2
f 87/151/2 88/152/2 89/153/2
f 89/153/2 88/152/2 90/154/2
f 91/155/3 92/156/3 93/157/3
f 94/158/3 95/159/3 92/160/3
f 94/161/3 92/156/3 91/155/3
f 96/162/3 97/163/3 95/164/3
f 96/165/3 95/159/3 94/158/3
f 98/166/3 99/167/3 97/168/3
f 98/169/3 97/163/3 96/162/3
f 100/170/3 101/171/3 99/172/3
f 100/173/3 99/167/3 98/166/3
f 102/174/3 101/171/3 100/170/3
f 103/175/3 104/176/3 105/177/3
f 106/178/3 107/179/3 104/180/3
f 106/181/3 104/176/3 103/175/3
f 108/182/3 107/179/3 106/178/3
f 109/183/3 110/184/3 111/185/3
f 112/186/3 113/187/3 110/188/3
f 112/189/3 110/184/3 109/183/3
f 114/190/3 113/187/3 112/186/3
f 115/191/3 116/192/3 117/193/3
f 118/194/3 116/192/3 115/191/3
f 119/195/4 120/196/4 121/197/4
f 122/198/4 123/199/4 124/200/4
f 123/201/4 125/202/4 126/203/4
f 127/204/4 128/205/4 129/206/4
f 130/207/4 119/208/4 131/209/4
f 119/195/4 121/197/4 132/210/4
f 131/209/4 119/208/4 132/211/4
f 121/212/4 124/200/4 133/213/4
f 132/210/4 121/197/4 133/214/4
f 123/201/4 126/203/4 134/215/4
f 133/213/4 124/200/4 134/216/4
f 124/200/4 123/199/4 134/216/4
f 126/217/4 129/206/4 135/218/4
f 134/215/4 126/203/4 135/219/4
f 129/206/4 128/205/4 136/220/4
f 135/218/4 129/206/4 136/220/4
f 137/221/4 138/222/4 139/223/4
f 138/224/4 140/225/4 141/226/4
f 139/223/4 138/222/4 141/227/4
f 140/228/4 142/229/4 143/230/4
f 141/226/4 140/225/4 143/231/4
f 142/232/4 144/233/4 145/234/4
f 143/230/4 142/229/4 145/235/4
f 144/236/4 146/237/4 147/238/4
f 145/234/4 144/233/4 147/239/4
f 147/238/4 146/237/4 148/240/4
f 149/241/5 150/242/5 151/243/5
f 152/244/5 150/242/5 149/241/5
f 153/245/5 154/246/5 155/247/5
f 156/248/5 154/246/5 153/245/5
f 157/249/5 158/250/5 159/251/5
f 160/252/5 158/250/5 157/249/5
f 161/253/5 160/254/5 157/255/5
f 162/256/5 160/254/5 161/253/5
f 163/257/5 162/258/5 161/259/5
f 164/260/5 162/258/5 163/257/5
f 165/261/5 164/262/5 163/263/5
f 166/264/5 164/262/5 165/261/5
f 167/265/5 166/266/5 165/267/5
f 168/268/5 166/266/5 167/265/5
f 169/269/5 170/270/5 171/271/5
f 172/272/5 170/270/5 169/269/5
f 173/273/5 172/274/5 169/275/5
f 174/276/5 172/274/5 173/273/5
f 175/277/5 174/278/5 173/279/5
f 176/280/5 174/278/5 175/277/5
f 177/281/5 176/282/5 175/283/5
f 178/284/5 176/282/5 177/281/5
f 179/285/5 178/286/5 177/287/5
f 180/288/5 178/286/5 179/285/5
f 181/289/6 182/290/6 183/291/6
f 183/291/6 182/290/6 184/292/6
f 183/293/6 184/294/6 185/295/6
f 185/295/6 184/294/6 186/296/6
f 185/297/6 186/298/6 187/299/6
f 187/299/6 186/298/6 188/300/6
f 187/301/6 188/302/6 189/303/6
f 189/303/6 188/302/6 190/304/6
f 189/305/6 190/306/6 191/307/6
f 191/307/6 190/306/6 192/308/6
f 193/309/6 194/310/6 195/311/6
f 195/311/6 194/310/6 196/312/6
f 195/313/6 196/314/6 197/315/6
f 197/315/6 196/314/6 198/316/6
f 197/317/6 198/318/6 199/319/6
f 199/319/6 198/318/6 200/320/6
f 199/321/6 200/322/6 201/323/6
f 201/323/6 200/322/6 202/324/6
f 201/325/6 202/326/6 203/327/6
f 203/327/6 202/326/6 204/328/6
f 205/329/6 206/330/6 207/331/6
f 207/331/6 206/330/6 208/332/6
f 209/333/6 210/334/6 211/335/6
f 211/335/6 210/334/6 212/336/6
