# Blender v2.80 (sub 75) OBJ File: 'GDS2_Construction-1.blend'
# www.blender.org
mtllib GDS2_Construction-1.mtl
o GDS2_Construction-1
v 1.398106 -0.100202 1.398609
v -1.401894 -0.200202 1.398609
v 1.398106 -0.200202 1.398609
v 0.298105 -0.100202 1.398609
v 0.198105 -0.100202 1.398609
v -1.401894 -0.100202 1.398609
v 0.298105 0.099798 1.398609
v 0.198105 0.099798 1.398609
v 1.398106 0.199798 1.398609
v 1.398106 0.099798 1.398609
v -1.401894 0.099798 1.398609
v -1.401894 0.199798 1.398609
v 1.298105 0.099798 1.298609
v 0.298105 -0.100202 1.298609
v 1.298105 -0.100202 1.298609
v 0.298105 0.099798 1.298609
v 0.198105 0.099798 1.298609
v -1.301895 -0.100202 1.298609
v 0.198105 -0.100202 1.298609
v -1.301895 0.099798 1.298609
v 1.298105 -0.100202 -1.301392
v 0.598106 -0.100202 -1.301392
v 1.298105 0.099798 -1.301392
v 0.598106 0.099798 -1.301392
v 0.498106 -0.100202 -1.301392
v -1.301895 -0.100202 -1.301392
v 0.498106 0.099798 -1.301392
v -1.301895 0.099798 -1.301392
v 1.398106 -0.200202 -1.401392
v -1.401894 -0.200202 -1.401392
v 1.398106 -0.100202 -1.401392
v 0.598106 -0.100202 -1.401392
v 0.498106 -0.100202 -1.401392
v -1.401894 -0.100202 -1.401392
v 0.598106 0.099798 -1.401392
v 0.498106 0.099798 -1.401392
v 1.398106 0.099798 -1.401392
v 1.398106 0.199798 -1.401392
v -1.401894 0.099798 -1.401392
v -1.401894 0.199798 -1.401392
v 1.398106 -0.200202 1.298609
v 1.398106 -0.100202 1.398609
v 1.398106 -0.200202 1.398609
v 1.398106 -0.100202 1.298609
v 1.398106 -0.200202 -1.301392
v 1.398106 -0.100202 -1.301392
v 1.398106 -0.200202 -1.401392
v 1.398106 -0.100202 -1.401392
v 1.398106 0.099798 -1.401392
v 1.398106 0.199798 1.398609
v 1.398106 0.099798 1.398609
v 1.398106 0.199798 -1.401392
v 1.298105 -0.100202 -1.301392
v 1.298105 0.099798 1.298609
v 1.298105 -0.100202 1.298609
v 1.298105 0.099798 -1.301392
v 0.598106 -0.100202 -1.401392
v 0.598106 0.099798 -1.301392
v 0.598106 -0.100202 -1.301392
v 0.598106 0.099798 -1.401392
v 0.298105 -0.100202 1.298609
v 0.298105 0.099798 1.398609
v 0.298105 -0.100202 1.398609
v 0.298105 0.099798 1.298609
v 0.498106 -0.100202 -1.301392
v 0.498106 0.099798 -1.301392
v 0.498106 -0.100202 -1.401392
v 0.498106 0.099798 -1.401392
v 0.198105 -0.100202 1.398609
v 0.198105 0.099798 1.398609
v 0.198105 -0.100202 1.298609
v 0.198105 0.099798 1.298609
v -1.301895 -0.100202 1.298609
v -1.301895 0.099798 1.298609
v -1.301895 -0.100202 -1.301392
v -1.301895 0.099798 -1.301392
v -1.401894 -0.200202 1.398609
v -1.401894 -0.100202 1.398609
v -1.401894 -0.200202 1.298609
v -1.401894 -0.100202 1.298609
v -1.401894 -0.200202 -1.301392
v -1.401894 -0.100202 -1.301392
v -1.401894 -0.200202 -1.401392
v -1.401894 -0.100202 -1.401392
v -1.401894 0.099798 1.398609
v -1.401894 0.199798 1.398609
v -1.401894 0.099798 -1.401392
v -1.401894 0.199798 -1.401392
v -1.401894 -0.200202 1.398609
v 1.398106 -0.200202 1.298609
v 1.398106 -0.200202 1.398609
v -1.401894 -0.200202 1.298609
v 1.398106 -0.200202 -1.301392
v -1.401894 -0.200202 -1.301392
v 1.398106 -0.200202 -1.401392
v -1.401894 -0.200202 -1.401392
v 1.298105 0.099798 1.298609
v 1.398106 0.099798 -1.401392
v 1.398106 0.099798 1.398609
v 1.298105 0.099798 -1.301392
v 0.598106 0.099798 -1.301392
v 0.598106 0.099798 -1.401392
v 0.298105 0.099798 1.398609
v 0.298105 0.099798 1.298609
v -1.301895 0.099798 1.298609
v 0.198105 0.099798 1.298609
v 0.198105 0.099798 1.398609
v -1.301895 0.099798 -1.301392
v 0.498106 0.099798 -1.401392
v 0.498106 0.099798 -1.301392
v -1.401894 0.099798 1.398609
v -1.401894 0.099798 -1.401392
v 1.398106 -0.100202 1.398609
v 1.398106 -0.100202 1.298609
v 1.298105 -0.100202 1.298609
v 1.398106 -0.100202 -1.301392
v 1.398106 -0.100202 -1.401392
v 1.298105 -0.100202 -1.301392
v 0.598106 -0.100202 -1.301392
v 0.598106 -0.100202 -1.401392
v 0.298105 -0.100202 1.398609
v 0.298105 -0.100202 1.298609
v 0.198105 -0.100202 1.398609
v 0.198105 -0.100202 1.298609
v -1.301895 -0.100202 1.298609
v 0.498106 -0.100202 -1.301392
v 0.498106 -0.100202 -1.401392
v -1.301895 -0.100202 -1.301392
v -1.401894 -0.100202 1.398609
v -1.401894 -0.100202 1.298609
v -1.401894 -0.100202 -1.301392
v -1.401894 -0.100202 -1.401392
v 1.398106 0.199798 1.398609
v 1.398106 0.199798 -1.401392
v -1.401894 0.199798 1.398609
v -1.401894 0.199798 -1.401392
vt 0.037109 0.500000
vt 0.037109 0.500000
vt 0.037109 0.500000
vt 0.037109 0.500000
vt 0.037109 0.500000
vt 0.037109 0.500000
vt 0.037109 0.500000
vt 0.037109 0.500000
vt 0.201172 0.500000
vt 0.201172 0.500000
vt 0.201172 0.500000
vt 0.201172 0.500000
vt 0.201172 0.500000
vt 0.201172 0.500000
vt 0.201172 0.500000
vt 0.201172 0.500000
vt 0.201172 0.500000
vt 0.201172 0.500000
vt 0.201172 0.500000
vt 0.201172 0.500000
vt 0.201172 0.500000
vt 0.201172 0.500000
vt 0.201172 0.500000
vt 0.201172 0.500000
vt 0.201172 0.500000
vt 0.201172 0.500000
vt 0.201172 0.500000
vt 0.201172 0.500000
vt 0.201172 0.500000
vt 0.201172 0.500000
vt 0.037109 0.500000
vt 0.037109 0.500000
vt 0.037109 0.500000
vt 0.037109 0.500000
vt 0.037109 0.500000
vt 0.037109 0.500000
vt 0.037109 0.500000
vt 0.037109 0.500000
vt 0.201172 0.500000
vt 0.201172 0.500000
vt 0.201172 0.500000
vt 0.201172 0.500000
vt 0.201172 0.500000
vt 0.201172 0.500000
vt 0.037109 0.500000
vt 0.037109 0.500000
vt 0.037109 0.500000
vt 0.037109 0.500000
vt 0.201172 0.500000
vt 0.201172 0.500000
vt 0.201172 0.500000
vt 0.201172 0.500000
vt 0.037109 0.500000
vt 0.037109 0.500000
vt 0.037109 0.500000
vt 0.037109 0.500000
vt 0.201172 0.500000
vt 0.201172 0.500000
vt 0.201172 0.500000
vt 0.201172 0.500000
vt 0.201172 0.500000
vt 0.201172 0.500000
vt 0.201172 0.500000
vt 0.201172 0.500000
vt 0.037109 0.500000
vt 0.037109 0.500000
vt 0.037109 0.500000
vt 0.037109 0.500000
vt 0.037109 0.500000
vt 0.037109 0.500000
vt 0.037109 0.500000
vt 0.037109 0.500000
vt 0.037109 0.500000
vt 0.037109 0.500000
vt 0.037109 0.500000
vt 0.037109 0.500000
vt 0.037109 0.500000
vt 0.037109 0.500000
vt 0.037109 0.500000
vt 0.037109 0.500000
vt 0.201172 0.500000
vt 0.201172 0.500000
vt 0.201172 0.500000
vt 0.201172 0.500000
vt 0.037109 0.500000
vt 0.037109 0.500000
vt 0.037109 0.500000
vt 0.037109 0.500000
vt 0.201172 0.500000
vt 0.201172 0.500000
vt 0.201172 0.500000
vt 0.201172 0.500000
vt 0.037109 0.500000
vt 0.037109 0.500000
vt 0.037109 0.500000
vt 0.037109 0.500000
vt 0.201172 0.500000
vt 0.201172 0.500000
vt 0.201172 0.500000
vt 0.201172 0.500000
vt 0.037109 0.500000
vt 0.037109 0.500000
vt 0.037109 0.500000
vt 0.201172 0.500000
vt 0.201172 0.500000
vt 0.201172 0.500000
vt 0.037109 0.500000
vt 0.037109 0.500000
vt 0.037109 0.500000
vt 0.037109 0.500000
vt 0.201172 0.500000
vt 0.037109 0.500000
vt 0.201172 0.500000
vt 0.201172 0.500000
vt 0.201172 0.500000
vt 0.201172 0.500000
vt 0.201172 0.500000
vt 0.201172 0.500000
vt 0.201172 0.500000
vt 0.201172 0.500000
vt 0.201172 0.500000
vt 0.201172 0.500000
vt 0.201172 0.500000
vt 0.201172 0.500000
vt 0.201172 0.500000
vt 0.201172 0.500000
vt 0.201172 0.500000
vt 0.201172 0.500000
vt 0.037109 0.500000
vt 0.037109 0.500000
vt 0.037109 0.500000
vt 0.201172 0.500000
vt 0.201172 0.500000
vt 0.201172 0.500000
vt 0.037109 0.500000
vt 0.037109 0.500000
vt 0.037109 0.500000
vt 0.201172 0.500000
vt 0.037109 0.500000
vt 0.037109 0.500000
vt 0.037109 0.500000
vt 0.037109 0.500000
vt 0.037109 0.500000
vt 0.037109 0.500000
vt 0.037109 0.500000
vt 0.037109 0.500000
vt 0.037109 0.500000
vt 0.037109 0.500000
vt 0.037109 0.500000
vt 0.201172 0.500000
vt 0.201172 0.500000
vt 0.201172 0.500000
vt 0.037109 0.500000
vt 0.037109 0.500000
vt 0.201172 0.500000
vt 0.037109 0.500000
vt 0.201172 0.500000
vt 0.201172 0.500000
vt 0.201172 0.500000
vt 0.201172 0.500000
vn 0.0000 0.0000 1.0000
vn 0.0000 0.0000 -1.0000
vn 1.0000 0.0000 0.0000
vn -1.0000 0.0000 0.0000
vn 0.0000 -1.0000 -0.0000
vn 0.0000 1.0000 0.0000
usemtl palette
s 1
f 1/1/1 2/2/1 3/3/1
f 4/4/1 2/2/1 1/1/1
f 5/5/1 2/2/1 4/4/1
f 6/6/1 2/2/1 5/5/1
f 7/7/1 5/5/1 4/4/1
f 8/8/1 5/5/1 7/7/1
f 9/9/1 7/10/1 10/11/1
f 9/9/1 11/12/1 8/13/1
f 9/9/1 8/13/1 7/10/1
f 12/14/1 11/12/1 9/9/1
f 13/15/1 14/16/1 15/17/1
f 16/18/1 14/16/1 13/15/1
f 17/19/1 18/20/1 19/21/1
f 20/22/1 18/20/1 17/19/1
f 21/23/2 22/24/2 23/25/2
f 23/25/2 22/24/2 24/26/2
f 25/27/2 26/28/2 27/29/2
f 27/29/2 26/28/2 28/30/2
f 29/31/2 30/32/2 31/33/2
f 31/33/2 30/32/2 32/34/2
f 32/34/2 30/32/2 33/35/2
f 33/35/2 30/32/2 34/36/2
f 32/34/2 33/35/2 35/37/2
f 35/37/2 33/35/2 36/38/2
f 37/39/2 35/40/2 38/41/2
f 36/42/2 39/43/2 38/41/2
f 35/40/2 36/42/2 38/41/2
f 38/41/2 39/43/2 40/44/2
f 41/45/3 42/46/3 43/47/3
f 44/48/3 42/46/3 41/45/3
f 45/49/3 44/50/3 41/51/3
f 46/52/3 44/50/3 45/49/3
f 47/53/3 46/54/3 45/55/3
f 48/56/3 46/54/3 47/53/3
f 49/57/3 50/58/3 51/59/3
f 52/60/3 50/58/3 49/57/3
f 53/61/3 54/62/3 55/63/3
f 56/64/3 54/62/3 53/61/3
f 57/65/3 58/66/3 59/67/3
f 60/68/3 58/66/3 57/65/3
f 61/69/3 62/70/3 63/71/3
f 64/72/3 62/70/3 61/69/3
f 65/73/4 66/74/4 67/75/4
f 67/75/4 66/74/4 68/76/4
f 69/77/4 70/78/4 71/79/4
f 71/79/4 70/78/4 72/80/4
f 73/81/4 74/82/4 75/83/4
f 75/83/4 74/82/4 76/84/4
f 77/85/4 78/86/4 79/87/4
f 79/87/4 78/86/4 80/88/4
f 79/89/4 80/90/4 81/91/4
f 81/91/4 80/90/4 82/92/4
f 81/93/4 82/94/4 83/95/4
f 83/95/4 82/94/4 84/96/4
f 85/97/4 86/98/4 87/99/4
f 87/99/4 86/98/4 88/100/4
f 89/101/5 90/102/5 91/103/5
f 92/104/5 93/105/5 90/106/5
f 92/107/5 90/102/5 89/101/5
f 94/108/5 95/109/5 93/110/5
f 94/111/5 93/105/5 92/104/5
f 96/112/5 95/109/5 94/108/5
f 97/113/5 98/114/5 99/115/5
f 100/116/5 98/114/5 97/113/5
f 101/117/5 98/114/5 100/116/5
f 102/118/5 98/114/5 101/117/5
f 103/119/5 97/113/5 99/115/5
f 104/120/5 97/113/5 103/119/5
f 105/121/5 106/122/5 107/123/5
f 108/124/5 109/125/5 110/126/5
f 111/127/5 105/121/5 107/123/5
f 111/127/5 108/124/5 105/121/5
f 112/128/5 109/125/5 108/124/5
f 112/128/5 108/124/5 111/127/5
f 113/129/6 114/130/6 115/131/6
f 114/132/6 116/133/6 115/134/6
f 116/135/6 117/136/6 118/137/6
f 115/134/6 116/133/6 118/138/6
f 118/137/6 117/136/6 119/139/6
f 119/139/6 117/136/6 120/140/6
f 113/129/6 115/131/6 121/141/6
f 121/141/6 115/131/6 122/142/6
f 123/143/6 124/144/6 125/145/6
f 126/146/6 127/147/6 128/148/6
f 123/143/6 125/145/6 129/149/6
f 125/150/6 128/151/6 130/152/6
f 129/149/6 125/145/6 130/153/6
f 128/148/6 127/147/6 131/154/6
f 130/152/6 128/151/6 131/155/6
f 131/154/6 127/147/6 132/156/6
f 133/157/6 134/158/6 135/159/6
f 135/159/6 134/158/6 136/160/6
