# Blender v2.80 (sub 75) OBJ File: 'GDS2_Floor3-1.blend'
# www.blender.org
mtllib GDS2_Floor3-1.mtl
o GDS2_Floor3-1
v -6.399999 0.050001 -6.400000
v 6.400001 -0.049999 -6.400000
v -6.399999 -0.049999 -6.400000
v 6.400001 0.050001 -6.400000
v -6.399999 -0.050001 6.400001
v 6.400001 -0.050001 6.400001
v -6.399999 0.049999 6.400001
v 6.400001 0.049999 6.400001
v -6.399999 -0.049999 -6.199999
v -6.399999 0.050001 -6.400000
v -6.399999 -0.049999 -6.400000
v -6.399999 0.050001 -6.199999
v -6.399999 -0.050001 6.200001
v -6.399999 0.049999 6.200001
v -6.399999 -0.050001 6.400001
v -6.399999 0.049999 6.400001
v 6.400001 -0.049999 -6.400000
v 6.400001 0.050001 -6.400000
v 6.400001 -0.049999 -6.199999
v 6.400001 0.050001 -6.199999
v 6.400001 -0.050001 6.200001
v 6.400001 0.049999 6.200001
v 6.400001 -0.050001 6.400001
v 6.400001 0.049999 6.400001
v 6.400001 -0.049999 -6.400000
v -6.399999 -0.049999 -6.199999
v -6.399999 -0.049999 -6.400000
v 6.400001 -0.049999 -6.199999
v -6.399999 -0.050001 6.200001
v 6.400001 -0.050001 6.200001
v -6.399999 -0.050001 6.400001
v 6.400001 -0.050001 6.400001
v -6.399999 0.050001 -6.400000
v -6.399999 0.050001 -6.199999
v 6.400001 0.050001 -6.400000
v -6.399999 0.049999 6.200001
v 6.400001 0.050001 -6.199999
v -6.399999 0.049999 6.400001
v 6.400001 0.049999 6.200001
v 6.400001 0.049999 6.400001
vt 0.966797 0.500000
vt 0.966797 0.500000
vt 0.966797 0.500000
vt 0.966797 0.500000
vt 0.966797 0.500000
vt 0.966797 0.500000
vt 0.966797 0.500000
vt 0.966797 0.500000
vt 0.966797 0.500000
vt 0.966797 0.500000
vt 0.966797 0.500000
vt 0.966797 0.500000
vt 0.982422 0.500000
vt 0.982422 0.500000
vt 0.982422 0.500000
vt 0.982422 0.500000
vt 0.966797 0.500000
vt 0.966797 0.500000
vt 0.966797 0.500000
vt 0.966797 0.500000
vt 0.966797 0.500000
vt 0.966797 0.500000
vt 0.966797 0.500000
vt 0.966797 0.500000
vt 0.982422 0.500000
vt 0.982422 0.500000
vt 0.982422 0.500000
vt 0.982422 0.500000
vt 0.966797 0.500000
vt 0.966797 0.500000
vt 0.966797 0.500000
vt 0.966797 0.500000
vt 0.966797 0.500000
vt 0.966797 0.500000
vt 0.966797 0.500000
vt 0.982422 0.500000
vt 0.982422 0.500000
vt 0.982422 0.500000
vt 0.966797 0.500000
vt 0.966797 0.500000
vt 0.966797 0.500000
vt 0.966797 0.500000
vt 0.982422 0.500000
vt 0.966797 0.500000
vt 0.966797 0.500000
vt 0.966797 0.500000
vt 0.966797 0.500000
vt 0.982422 0.500000
vt 0.982422 0.500000
vt 0.982422 0.500000
vt 0.966797 0.500000
vt 0.966797 0.500000
vt 0.966797 0.500000
vt 0.966797 0.500000
vt 0.982422 0.500000
vt 0.966797 0.500000
vn 0.0000 0.0000 -1.0000
vn 0.0000 0.0000 1.0000
vn -1.0000 0.0000 0.0000
vn 1.0000 0.0000 0.0000
vn 0.0000 -1.0000 -0.0000
vn 0.0000 1.0000 0.0000
usemtl palette
s 1
f 1/1/1 2/2/1 3/3/1
f 4/4/1 2/2/1 1/1/1
f 5/5/2 6/6/2 7/7/2
f 7/7/2 6/6/2 8/8/2
f 9/9/3 10/10/3 11/11/3
f 12/12/3 10/10/3 9/9/3
f 13/13/3 12/14/3 9/15/3
f 14/16/3 12/14/3 13/13/3
f 15/17/3 14/18/3 13/19/3
f 16/20/3 14/18/3 15/17/3
f 17/21/4 18/22/4 19/23/4
f 19/23/4 18/22/4 20/24/4
f 19/25/4 20/26/4 21/27/4
f 21/27/4 20/26/4 22/28/4
f 21/29/4 22/30/4 23/31/4
f 23/31/4 22/30/4 24/32/4
f 25/33/5 26/34/5 27/35/5
f 28/36/5 29/37/5 26/38/5
f 28/39/5 26/34/5 25/33/5
f 30/40/5 31/41/5 29/42/5
f 30/43/5 29/37/5 28/36/5
f 32/44/5 31/41/5 30/40/5
f 33/45/6 34/46/6 35/47/6
f 34/48/6 36/49/6 37/50/6
f 35/47/6 34/46/6 37/51/6
f 36/52/6 38/53/6 39/54/6
f 37/50/6 36/49/6 39/55/6
f 39/54/6 38/53/6 40/56/6
