# Blender v2.80 (sub 75) OBJ File: 'GDS2_Floor2-5.blend'
# www.blender.org
mtllib GDS2_Floor2-5.mtl
o GDS2_Floor2-5
v 6.131287 0.044461 -6.668714
v 6.131287 -0.055539 -6.468714
v 6.131287 -0.055539 -6.668714
v 6.131287 0.044461 -6.468714
v 6.131287 -0.055541 3.031286
v 6.131287 0.044459 3.031286
v 6.131287 -0.055541 6.031286
v 6.131287 0.044459 3.131286
v 6.131287 0.044459 3.731286
v 6.131287 0.044459 3.831286
v 6.131287 0.044459 4.331285
v 6.131287 0.044459 4.431286
v 6.131287 0.044459 4.931286
v 6.131287 0.044459 5.031286
v 6.131287 0.044459 5.531286
v 6.131287 0.044459 5.631286
v 6.131287 0.044459 6.031286
v 6.131287 -0.055541 6.131286
v 6.131287 0.044459 6.131286
v 6.131287 0.144459 3.031286
v 6.131287 0.144459 3.131286
v 6.131287 0.144459 3.731286
v 6.131287 0.144459 3.831286
v 6.131287 0.144459 4.331285
v 6.131287 0.144459 4.431286
v 6.131287 0.144459 4.931286
v 6.131287 0.144459 5.031286
v 6.131287 0.144459 5.531286
v 6.131287 0.144459 5.631286
v 6.131287 0.144459 6.131286
v 3.031286 0.044459 3.031286
v 3.031286 0.044459 3.831286
v 3.031286 0.144459 3.031286
v 3.031286 0.044459 4.331285
v 3.031286 0.144459 3.831286
v 3.031286 0.044459 5.031286
v 3.031286 0.144459 4.331285
v 3.031286 0.044459 5.531286
v 3.031286 0.144459 5.031286
v 3.031286 0.044459 6.131286
v 3.031286 0.144459 5.531286
v 3.031286 0.144459 6.131286
v -6.668714 -0.055539 -6.668714
v -6.668714 -0.055541 6.131286
v -6.668714 0.044461 -6.668714
v -6.668714 0.044459 6.131286
v -6.668714 -0.055539 -6.668714
v 6.131287 0.044461 -6.668714
v 6.131287 -0.055539 -6.668714
v -6.668714 0.044461 -6.668714
v 3.031286 0.044459 3.031286
v 6.131287 0.144459 3.031286
v 6.131287 0.044459 3.031286
v 3.031286 0.144459 3.031286
v 6.131287 -0.055541 6.131286
v 6.131287 0.044459 6.131286
v 5.831286 0.044459 6.131286
v 6.131287 0.144459 6.131286
v 5.831286 0.144459 6.131286
v 5.731287 0.044459 6.131286
v 5.731287 0.144459 6.131286
v 4.431287 0.044459 6.131286
v 4.431287 0.144459 6.131286
v 3.031286 0.044459 6.131286
v 3.031286 0.144459 6.131286
v -6.468714 -0.055541 6.131286
v -6.468714 0.044459 6.131286
v -6.668714 -0.055541 6.131286
v -6.668714 0.044459 6.131286
v 6.131287 -0.055539 -6.468714
v -6.668714 -0.055539 -6.668714
v 6.131287 -0.055539 -6.668714
v -6.468714 -0.055539 -6.468714
v 6.131287 -0.055541 3.031286
v 3.031286 -0.055541 3.031286
v 6.131287 -0.055541 6.031286
v 3.031286 -0.055541 6.031286
v 6.131287 -0.055541 6.131286
v -6.468714 -0.055541 6.131286
v -6.668714 -0.055541 6.131286
v 6.131287 0.044461 -6.668714
v -6.668714 0.044461 -6.668714
v 6.131287 0.044461 -6.468714
v -6.468714 0.044461 -6.468714
v 6.131287 0.044459 3.031286
v 3.031286 0.044459 3.031286
v 3.031286 0.044459 3.831286
v 3.031286 0.044459 4.331285
v 3.031286 0.044459 5.031286
v 3.031286 0.044459 5.531286
v 3.031286 0.044459 6.131286
v -6.468714 0.044459 6.131286
v -6.668714 0.044459 6.131286
v 6.131287 0.144459 3.031286
v 3.031286 0.144459 3.031286
v 6.131287 0.144459 3.131286
v 5.831286 0.144459 3.131286
v 3.631286 0.144459 3.131286
v 3.131286 0.144459 3.131286
v 5.731287 0.144459 3.231286
v 4.831286 0.144459 3.231286
v 4.731286 0.144459 3.231286
v 3.831286 0.144459 3.231286
v 5.731287 0.144459 3.631286
v 4.831286 0.144459 3.631286
v 6.131287 0.144459 3.731286
v 5.831286 0.144459 3.731286
v 4.731286 0.144459 3.731286
v 3.831286 0.144459 3.731286
v 3.631286 0.144459 3.731286
v 3.131286 0.144459 3.731286
v 6.131287 0.144459 3.831286
v 5.031286 0.144459 3.831286
v 4.831286 0.144459 3.831286
v 3.531286 0.144459 3.831286
v 3.331286 0.144459 3.831286
v 3.031286 0.144459 3.831286
v 6.131287 0.144459 4.331285
v 5.031286 0.144459 4.331285
v 4.831286 0.144459 4.331285
v 3.531286 0.144459 4.331285
v 3.331286 0.144459 4.331285
v 3.031286 0.144459 4.331285
v 6.131287 0.144459 4.431286
v 5.431287 0.144459 4.431286
v 5.231287 0.144459 4.431286
v 4.031286 0.144459 4.431286
v 3.931287 0.144459 4.531286
v 3.131286 0.144459 4.531286
v 5.231287 0.144459 4.831285
v 4.031286 0.144459 4.831285
v 6.131287 0.144459 4.931286
v 5.431287 0.144459 4.931286
v 3.931287 0.144459 4.931286
v 3.131286 0.144459 4.931286
v 6.131287 0.144459 5.031286
v 5.131287 0.144459 5.031286
v 5.031286 0.144459 5.031286
v 3.931287 0.144459 5.031286
v 3.831286 0.144459 5.031286
v 3.031286 0.144459 5.031286
v 6.131287 0.144459 5.531286
v 5.131287 0.144459 5.531286
v 5.031286 0.144459 5.531286
v 3.931287 0.144459 5.531286
v 3.831286 0.144459 5.531286
v 3.031286 0.144459 5.531286
v 6.131287 0.144459 5.631286
v 5.831286 0.144459 5.631286
v 5.731287 0.144459 5.631286
v 4.431287 0.144459 5.631286
v 4.331286 0.144459 5.631286
v 3.131286 0.144459 5.631286
v 4.331286 0.144459 6.031286
v 3.131286 0.144459 6.031286
v 6.131287 0.144459 6.131286
v 5.831286 0.144459 6.131286
v 5.731287 0.144459 6.131286
v 4.431287 0.144459 6.131286
v 3.031286 0.144459 6.131286
vt 0.966797 0.500000
vt 0.966797 0.500000
vt 0.966797 0.500000
vt 0.982422 0.500000
vt 0.982422 0.500000
vt 0.982422 0.500000
vt 0.966797 0.500000
vt 0.986328 0.500000
vt 0.986328 0.500000
vt 0.986328 0.500000
vt 0.982422 0.500000
vt 0.986328 0.500000
vt 0.986328 0.500000
vt 0.986328 0.500000
vt 0.986328 0.500000
vt 0.986328 0.500000
vt 0.986328 0.500000
vt 0.986328 0.500000
vt 0.986328 0.500000
vt 0.986328 0.500000
vt 0.982422 0.500000
vt 0.982422 0.500000
vt 0.982422 0.500000
vt 0.986328 0.500000
vt 0.982422 0.500000
vt 0.974609 0.500000
vt 0.974609 0.500000
vt 0.974609 0.500000
vt 0.978516 0.500000
vt 0.978516 0.500000
vt 0.978516 0.500000
vt 0.974609 0.500000
vt 0.974609 0.500000
vt 0.974609 0.500000
vt 0.974609 0.500000
vt 0.978516 0.500000
vt 0.978516 0.500000
vt 0.978516 0.500000
vt 0.978516 0.500000
vt 0.974609 0.500000
vt 0.974609 0.500000
vt 0.974609 0.500000
vt 0.974609 0.500000
vt 0.978516 0.500000
vt 0.978516 0.500000
vt 0.978516 0.500000
vt 0.978516 0.500000
vt 0.974609 0.500000
vt 0.974609 0.500000
vt 0.974609 0.500000
vt 0.974609 0.500000
vt 0.978516 0.500000
vt 0.978516 0.500000
vt 0.978516 0.500000
vt 0.978516 0.500000
vt 0.974609 0.500000
vt 0.974609 0.500000
vt 0.974609 0.500000
vt 0.974609 0.500000
vt 0.978516 0.500000
vt 0.978516 0.500000
vt 0.978516 0.500000
vt 0.978516 0.500000
vt 0.974609 0.500000
vt 0.978516 0.500000
vt 0.978516 0.500000
vt 0.974609 0.500000
vt 0.974609 0.500000
vt 0.974609 0.500000
vt 0.978516 0.500000
vt 0.978516 0.500000
vt 0.978516 0.500000
vt 0.974609 0.500000
vt 0.974609 0.500000
vt 0.974609 0.500000
vt 0.974609 0.500000
vt 0.978516 0.500000
vt 0.978516 0.500000
vt 0.978516 0.500000
vt 0.978516 0.500000
vt 0.974609 0.500000
vt 0.974609 0.500000
vt 0.974609 0.500000
vt 0.974609 0.500000
vt 0.978516 0.500000
vt 0.974609 0.500000
vt 0.966797 0.500000
vt 0.966797 0.500000
vt 0.966797 0.500000
vt 0.966797 0.500000
vt 0.966797 0.500000
vt 0.966797 0.500000
vt 0.966797 0.500000
vt 0.966797 0.500000
vt 0.974609 0.500000
vt 0.974609 0.500000
vt 0.974609 0.500000
vt 0.974609 0.500000
vt 0.982422 0.500000
vt 0.982422 0.500000
vt 0.982422 0.500000
vt 0.978516 0.500000
vt 0.978516 0.500000
vt 0.978516 0.500000
vt 0.978516 0.500000
vt 0.982422 0.500000
vt 0.974609 0.500000
vt 0.974609 0.500000
vt 0.974609 0.500000
vt 0.974609 0.500000
vt 0.982422 0.500000
vt 0.978516 0.500000
vt 0.978516 0.500000
vt 0.978516 0.500000
vt 0.978516 0.500000
vt 0.982422 0.500000
vt 0.974609 0.500000
vt 0.974609 0.500000
vt 0.974609 0.500000
vt 0.974609 0.500000
vt 0.982422 0.500000
vt 0.982422 0.500000
vt 0.966797 0.500000
vt 0.966797 0.500000
vt 0.966797 0.500000
vt 0.966797 0.500000
vt 0.966797 0.500000
vt 0.966797 0.500000
vt 0.966797 0.500000
vt 0.966797 0.500000
vt 0.982422 0.500000
vt 0.982422 0.500000
vt 0.982422 0.500000
vt 0.982422 0.500000
vt 0.986328 0.500000
vt 0.986328 0.500000
vt 0.986328 0.500000
vt 0.982422 0.500000
vt 0.986328 0.500000
vt 0.982422 0.500000
vt 0.982422 0.500000
vt 0.966797 0.500000
vt 0.982422 0.500000
vt 0.966797 0.500000
vt 0.966797 0.500000
vt 0.966797 0.500000
vt 0.966797 0.500000
vt 0.966797 0.500000
vt 0.982422 0.500000
vt 0.982422 0.500000
vt 0.982422 0.500000
vt 0.982422 0.500000
vt 0.982422 0.500000
vt 0.982422 0.500000
vt 0.982422 0.500000
vt 0.982422 0.500000
vt 0.982422 0.500000
vt 0.966797 0.500000
vt 0.982422 0.500000
vt 0.966797 0.500000
vt 0.974609 0.500000
vt 0.974609 0.500000
vt 0.974609 0.500000
vt 0.974609 0.500000
vt 0.974609 0.500000
vt 0.974609 0.500000
vt 0.974609 0.500000
vt 0.974609 0.500000
vt 0.974609 0.500000
vt 0.974609 0.500000
vt 0.974609 0.500000
vt 0.978516 0.500000
vt 0.978516 0.500000
vt 0.978516 0.500000
vt 0.974609 0.500000
vt 0.978516 0.500000
vt 0.978516 0.500000
vt 0.978516 0.500000
vt 0.978516 0.500000
vt 0.974609 0.500000
vt 0.978516 0.500000
vt 0.974609 0.500000
vt 0.978516 0.500000
vt 0.978516 0.500000
vt 0.978516 0.500000
vt 0.974609 0.500000
vt 0.978516 0.500000
vt 0.978516 0.500000
vt 0.978516 0.500000
vt 0.978516 0.500000
vt 0.974609 0.500000
vt 0.974609 0.500000
vt 0.978516 0.500000
vt 0.974609 0.500000
vt 0.974609 0.500000
vt 0.974609 0.500000
vt 0.974609 0.500000
vt 0.974609 0.500000
vt 0.974609 0.500000
vt 0.974609 0.500000
vt 0.978516 0.500000
vt 0.978516 0.500000
vt 0.978516 0.500000
vt 0.974609 0.500000
vt 0.978516 0.500000
vt 0.978516 0.500000
vt 0.978516 0.500000
vt 0.978516 0.500000
vt 0.974609 0.500000
vt 0.974609 0.500000
vt 0.978516 0.500000
vt 0.978516 0.500000
vt 0.978516 0.500000
vt 0.978516 0.500000
vt 0.974609 0.500000
vt 0.978516 0.500000
vt 0.974609 0.500000
vt 0.974609 0.500000
vt 0.974609 0.500000
vt 0.974609 0.500000
vt 0.974609 0.500000
vt 0.974609 0.500000
vt 0.974609 0.500000
vt 0.974609 0.500000
vt 0.974609 0.500000
vt 0.978516 0.500000
vt 0.978516 0.500000
vt 0.978516 0.500000
vt 0.974609 0.500000
vt 0.978516 0.500000
vt 0.978516 0.500000
vt 0.978516 0.500000
vt 0.978516 0.500000
vt 0.974609 0.500000
vt 0.978516 0.500000
vt 0.974609 0.500000
vt 0.978516 0.500000
vt 0.978516 0.500000
vt 0.978516 0.500000
vt 0.974609 0.500000
vt 0.978516 0.500000
vt 0.974609 0.500000
vt 0.974609 0.500000
vt 0.974609 0.500000
vt 0.974609 0.500000
vt 0.974609 0.500000
vt 0.974609 0.500000
vt 0.974609 0.500000
vt 0.978516 0.500000
vt 0.978516 0.500000
vt 0.978516 0.500000
vt 0.974609 0.500000
vt 0.978516 0.500000
vt 0.978516 0.500000
vt 0.978516 0.500000
vt 0.978516 0.500000
vt 0.974609 0.500000
vt 0.974609 0.500000
vt 0.978516 0.500000
vt 0.978516 0.500000
vt 0.978516 0.500000
vt 0.978516 0.500000
vt 0.974609 0.500000
vt 0.978516 0.500000
vt 0.974609 0.500000
vt 0.974609 0.500000
vt 0.974609 0.500000
vt 0.974609 0.500000
vt 0.974609 0.500000
vt 0.974609 0.500000
vt 0.974609 0.500000
vt 0.974609 0.500000
vt 0.974609 0.500000
vt 0.978516 0.500000
vt 0.978516 0.500000
vt 0.978516 0.500000
vt 0.974609 0.500000
vt 0.978516 0.500000
vt 0.978516 0.500000
vt 0.978516 0.500000
vt 0.978516 0.500000
vt 0.974609 0.500000
vt 0.978516 0.500000
vt 0.978516 0.500000
vt 0.978516 0.500000
vt 0.978516 0.500000
vt 0.974609 0.500000
vt 0.974609 0.500000
vt 0.978516 0.500000
vt 0.974609 0.500000
vn 1.0000 0.0000 0.0000
vn 1.0000 0.0001 0.0000
vn -1.0000 0.0000 0.0000
vn 0.0000 0.0000 -1.0000
vn 0.0000 0.0000 1.0000
vn 0.0000 -1.0000 -0.0000
vn 0.0000 1.0000 0.0000
usemtl palette
s 1
f 1/1/1 2/2/1 3/3/1
f 4/4/1 5/5/1 2/6/1
f 4/7/1 2/2/1 1/1/1
f 6/8/1 7/9/1 5/10/1
f 6/11/1 5/5/1 4/4/1
f 8/12/1 7/9/1 6/8/1
f 9/13/1 7/9/1 8/12/1
f 10/14/2 7/9/1 9/13/1
f 11/15/1 7/9/1 10/14/2
f 12/16/2 7/9/1 11/15/1
f 13/17/1 7/9/1 12/16/2
f 14/18/1 7/9/1 13/17/1
f 15/19/1 7/9/1 14/18/1
f 16/20/1 7/9/1 15/19/1
f 17/21/1 18/22/1 7/23/1
f 17/24/1 7/9/1 16/20/1
f 19/25/1 18/22/1 17/21/1
f 20/26/1 8/27/1 6/28/1
f 21/29/1 9/30/1 8/31/1
f 21/32/1 8/27/1 20/26/1
f 22/33/1 10/34/2 9/35/1
f 22/36/1 9/30/1 21/29/1
f 23/37/1 11/38/1 10/39/2
f 23/40/1 10/34/2 22/33/1
f 24/41/1 12/42/2 11/43/1
f 24/44/1 11/38/1 23/37/1
f 25/45/1 13/46/1 12/47/2
f 25/48/1 12/42/2 24/41/1
f 26/49/1 14/50/1 13/51/1
f 26/52/1 13/46/1 25/45/1
f 27/53/1 15/54/1 14/55/1
f 27/56/1 14/50/1 26/49/1
f 28/57/1 16/58/1 15/59/1
f 28/60/1 15/54/1 27/53/1
f 29/61/1 19/62/1 17/63/1
f 29/64/1 16/58/1 28/57/1
f 29/61/1 17/63/1 16/65/1
f 30/66/1 19/62/1 29/61/1
f 31/67/3 32/68/3 33/69/3
f 32/70/3 34/71/3 35/72/3
f 33/69/3 32/68/3 35/73/3
f 34/74/3 36/75/3 37/76/3
f 35/72/3 34/71/3 37/77/3
f 36/78/3 38/79/3 39/80/3
f 37/76/3 36/75/3 39/81/3
f 38/82/3 40/83/3 41/84/3
f 39/80/3 38/79/3 41/85/3
f 41/84/3 40/83/3 42/86/3
f 43/87/3 44/88/3 45/89/3
f 45/89/3 44/88/3 46/90/3
f 47/91/4 48/92/4 49/93/4
f 50/94/4 48/92/4 47/91/4
f 51/95/4 52/96/4 53/97/4
f 54/98/4 52/96/4 51/95/4
f 55/99/5 56/100/5 57/101/5
f 56/102/5 58/103/5 57/104/5
f 57/104/5 58/103/5 59/105/5
f 55/99/5 57/101/5 60/106/5
f 57/107/5 59/108/5 60/109/5
f 60/109/5 59/108/5 61/110/5
f 55/99/5 60/106/5 62/111/5
f 60/112/5 61/113/5 62/114/5
f 62/114/5 61/113/5 63/115/5
f 55/99/5 62/111/5 64/116/5
f 62/117/5 63/118/5 64/119/5
f 64/119/5 63/118/5 65/120/5
f 55/99/5 64/116/5 66/121/5
f 66/121/5 64/116/5 67/122/5
f 66/123/5 67/124/5 68/125/5
f 68/125/5 67/124/5 69/126/5
f 70/127/6 71/128/6 72/129/6
f 73/130/6 71/128/6 70/127/6
f 74/131/6 73/132/6 70/133/6
f 75/134/6 73/132/6 74/131/6
f 76/135/6 75/136/6 74/137/6
f 77/138/6 73/132/6 75/134/6
f 77/139/6 75/136/6 76/135/6
f 78/140/6 77/138/6 76/141/6
f 79/142/6 71/128/6 73/130/6
f 79/143/6 77/138/6 78/140/6
f 79/143/6 73/132/6 77/138/6
f 80/144/6 71/128/6 79/142/6
f 81/145/7 82/146/7 83/147/7
f 83/147/7 82/146/7 84/148/7
f 83/149/7 84/150/7 85/151/7
f 85/151/7 84/150/7 86/152/7
f 86/152/7 84/150/7 87/153/7
f 87/153/7 84/150/7 88/154/7
f 88/154/7 84/150/7 89/155/7
f 89/155/7 84/150/7 90/156/7
f 90/156/7 84/150/7 91/157/7
f 84/148/7 82/146/7 92/158/7
f 91/157/7 84/150/7 92/159/7
f 92/158/7 82/146/7 93/160/7
f 94/161/7 95/162/7 96/163/7
f 96/163/7 95/162/7 97/164/7
f 97/164/7 95/162/7 98/165/7
f 98/165/7 95/162/7 99/166/7
f 97/164/7 98/165/7 100/167/7
f 100/167/7 98/165/7 101/168/7
f 101/168/7 98/165/7 102/169/7
f 102/169/7 98/165/7 103/170/7
f 97/164/7 100/167/7 104/171/7
f 100/172/7 101/173/7 104/174/7
f 101/168/7 102/169/7 105/175/7
f 104/174/7 101/173/7 105/176/7
f 96/177/7 97/178/7 106/179/7
f 97/164/7 104/171/7 107/180/7
f 106/179/7 97/178/7 107/181/7
f 104/171/7 105/175/7 107/180/7
f 105/175/7 102/169/7 108/182/7
f 107/180/7 105/175/7 108/182/7
f 102/183/7 103/184/7 108/185/7
f 103/170/7 98/165/7 109/186/7
f 108/185/7 103/184/7 109/187/7
f 98/188/7 99/189/7 110/190/7
f 109/186/7 98/165/7 110/191/7
f 99/166/7 95/162/7 111/192/7
f 110/190/7 99/189/7 111/193/7
f 106/194/7 107/180/7 112/195/7
f 109/186/7 110/191/7 112/195/7
f 110/191/7 111/192/7 112/195/7
f 108/182/7 109/186/7 112/195/7
f 107/180/7 108/182/7 112/195/7
f 112/195/7 111/192/7 113/196/7
f 113/196/7 111/192/7 114/197/7
f 114/197/7 111/192/7 115/198/7
f 115/198/7 111/192/7 116/199/7
f 111/192/7 95/162/7 117/200/7
f 116/199/7 111/192/7 117/200/7
f 112/201/7 113/202/7 118/203/7
f 113/196/7 114/197/7 119/204/7
f 118/203/7 113/202/7 119/205/7
f 114/206/7 115/207/7 120/208/7
f 119/204/7 114/197/7 120/209/7
f 115/198/7 116/199/7 121/210/7
f 120/208/7 115/207/7 121/211/7
f 116/212/7 117/213/7 122/214/7
f 121/210/7 116/199/7 122/215/7
f 122/214/7 117/213/7 123/216/7
f 119/204/7 120/209/7 124/217/7
f 118/218/7 119/204/7 124/217/7
f 122/215/7 123/219/7 124/217/7
f 121/210/7 122/215/7 124/217/7
f 120/209/7 121/210/7 124/217/7
f 124/217/7 123/219/7 125/220/7
f 125/220/7 123/219/7 126/221/7
f 126/221/7 123/219/7 127/222/7
f 127/222/7 123/219/7 128/223/7
f 128/223/7 123/219/7 129/224/7
f 125/220/7 126/221/7 130/225/7
f 126/226/7 127/227/7 130/228/7
f 127/222/7 128/223/7 131/229/7
f 130/228/7 127/227/7 131/230/7
f 124/231/7 125/232/7 132/233/7
f 125/220/7 130/225/7 133/234/7
f 132/233/7 125/232/7 133/235/7
f 130/225/7 131/229/7 133/234/7
f 131/229/7 128/223/7 134/236/7
f 133/234/7 131/229/7 134/236/7
f 128/237/7 129/238/7 134/239/7
f 129/224/7 123/219/7 135/240/7
f 134/239/7 129/238/7 135/241/7
f 132/242/7 133/234/7 136/243/7
f 133/234/7 134/236/7 136/243/7
f 134/236/7 135/240/7 136/243/7
f 136/243/7 135/240/7 137/244/7
f 137/244/7 135/240/7 138/245/7
f 138/245/7 135/240/7 139/246/7
f 139/246/7 135/240/7 140/247/7
f 135/240/7 123/219/7 141/248/7
f 140/247/7 135/240/7 141/248/7
f 136/249/7 137/250/7 142/251/7
f 137/244/7 138/245/7 143/252/7
f 142/251/7 137/250/7 143/253/7
f 138/254/7 139/255/7 144/256/7
f 143/252/7 138/245/7 144/257/7
f 139/246/7 140/247/7 145/258/7
f 144/256/7 139/255/7 145/259/7
f 140/260/7 141/261/7 146/262/7
f 145/258/7 140/247/7 146/263/7
f 146/262/7 141/261/7 147/264/7
f 143/252/7 144/257/7 148/265/7
f 142/266/7 143/252/7 148/265/7
f 146/263/7 147/267/7 148/265/7
f 145/258/7 146/263/7 148/265/7
f 144/257/7 145/258/7 148/265/7
f 148/265/7 147/267/7 149/268/7
f 149/268/7 147/267/7 150/269/7
f 150/269/7 147/267/7 151/270/7
f 151/270/7 147/267/7 152/271/7
f 152/271/7 147/267/7 153/272/7
f 151/270/7 152/271/7 154/273/7
f 152/274/7 153/275/7 154/276/7
f 153/272/7 147/267/7 155/277/7
f 154/276/7 153/275/7 155/278/7
f 148/279/7 149/280/7 156/281/7
f 149/268/7 150/269/7 157/282/7
f 156/281/7 149/280/7 157/283/7
f 150/284/7 151/285/7 158/286/7
f 157/282/7 150/269/7 158/287/7
f 151/270/7 154/273/7 159/288/7
f 158/286/7 151/285/7 159/289/7
f 154/273/7 155/277/7 159/288/7
f 155/277/7 147/267/7 160/290/7
f 159/288/7 155/277/7 160/290/7
